<?xml version="1.0" encoding="UTF-8"?>
<svg version="1.1" xmlns="http://www.w3.org/2000/svg" width="500" height="500">
<path d="M0 0 C165 0 330 0 500 0 C500 165 500 330 500 500 C335 500 170 500 0 500 C0 335 0 170 0 0 Z " fill="#000000" transform="translate(0,0)"/>
<path d="M0 0 C0.66 0 1.32 0 2 0 C2.51046875 1.12792969 3.0209375 2.25585938 3.546875 3.41796875 C17.33636715 33.45301446 35.31549845 61.07779758 57 86 C58.12728516 87.29744141 58.12728516 87.29744141 59.27734375 88.62109375 C68.44265522 98.97971883 78.08537234 108.48568465 89 117 C89.98355469 117.78890625 90.96710938 118.5778125 91.98046875 119.390625 C116.63358734 139.00591551 145.11312794 153.26232329 175 163 C175.2693335 162.26281738 175.53866699 161.52563477 175.81616211 160.76611328 C176.9591737 158.09539327 178.21726318 156.068 179.94140625 153.7421875 C180.52035645 152.95739014 181.09930664 152.17259277 181.69580078 151.36401367 C182.31181152 150.54263916 182.92782227 149.72126465 183.5625 148.875 C184.19655762 148.02333252 184.83061523 147.17166504 185.48388672 146.29418945 C190.15861385 140.04714064 194.95427133 133.95272702 200 128 C200.86132089 126.95365463 201.72196003 125.90674781 202.58203125 124.859375 C222.82157029 100.45453599 247.36659084 77.22309322 278 67 C278.91523438 66.66355469 279.83046875 66.32710938 280.7734375 65.98046875 C301.50931101 59.16191575 321.16801139 67.75023469 339.71801758 76.71826172 C348.02965199 80.73439678 356.08396457 84.51520324 365 87 C365.70382812 87.19851562 366.40765625 87.39703125 367.1328125 87.6015625 C367.74898438 87.77429688 368.36515625 87.94703125 369 88.125 C371.56875677 88.87422072 373.64510753 89.77180177 376 91 C374.97003906 91.25652344 373.94007813 91.51304687 372.87890625 91.77734375 C358.04423037 95.68287098 344.68024015 101.91475063 333 112 C332.18660156 112.61746094 331.37320312 113.23492187 330.53515625 113.87109375 C316.63772434 125.54151037 309.82014664 144.7794633 306.15625 161.9140625 C299.91608723 190.75763424 286.72548338 217.09957818 267 239 C266.39542969 239.67675781 265.79085938 240.35351562 265.16796875 241.05078125 C248.6674792 258.51480304 224.31317542 269.5995211 201 274 C199.72576172 274.28810547 199.72576172 274.28810547 198.42578125 274.58203125 C189.39288817 276.50480635 180.20220719 276.74087301 171 277 C169.5147583 277.04302246 169.5147583 277.04302246 167.99951172 277.08691406 C151.76208366 277.4873376 136.06642265 276.3505739 120 274 C120 273.67 120 273.34 120 273 C120.93046143 272.98018066 121.86092285 272.96036133 122.81958008 272.93994141 C160.08519218 272.10613514 194.69053499 269.45512217 228 251 C229.11761719 250.38511719 230.23523438 249.77023437 231.38671875 249.13671875 C245.51541824 240.90491917 258.28412624 229.46602597 268 216.3125 C268.52053955 215.60826904 269.0410791 214.90403809 269.57739258 214.1784668 C284.14816703 194.21430395 292.2439323 170.78960175 298.9375 147.1875 C302.39370069 135.82930199 308.02442681 124.82819571 316 116 C316.56847656 115.32839844 317.13695312 114.65679687 317.72265625 113.96484375 C330.83289164 99.51853342 351.65159145 94.14791151 370 90 C369.13761719 89.93683594 368.27523438 89.87367188 367.38671875 89.80859375 C356.14916886 88.68127882 346.42682529 85.21609314 336 81 C335.29214355 80.71511719 334.58428711 80.43023437 333.85498047 80.13671875 C332.51666712 79.59768918 331.17868105 79.05784612 329.84106445 78.51708984 C326.89924389 77.33160822 323.94920885 76.16695314 321 75 C320.19304687 74.65710938 319.38609375 74.31421875 318.5546875 73.9609375 C306.63104103 69.5155362 291.85618306 70.60791203 280.29296875 75.4609375 C278.66294922 76.22277344 278.66294922 76.22277344 277 77 C275.84113281 77.50789063 274.68226563 78.01578125 273.48828125 78.5390625 C264.72120883 82.60914453 257.36383806 87.84882774 250 94 C249.40622559 94.49226074 248.81245117 94.98452148 248.20068359 95.49169922 C238.35807976 103.68301678 229.31460489 112.24441776 221 122 C220.18789063 122.93457031 219.37578125 123.86914062 218.5390625 124.83203125 C201.04696249 144.72916537 201.04696249 144.72916537 187 167 C188.07121094 167.11472656 189.14242188 167.22945312 190.24609375 167.34765625 C196.96495614 168.18769859 203.56469082 169.7003132 210.18554688 171.09570312 C225.07816192 174.15885372 239.78849535 175.41999361 254.9375 176.125 C256.69989803 176.21166733 258.46226817 176.29890366 260.22460938 176.38671875 C264.48278109 176.59768357 268.74125184 176.80102596 273 177 C273 177.33 273 177.66 273 178 C247.79618973 178.3309257 223.02829414 177.73927563 198.12939453 173.32128906 C190.59207065 171.83055715 190.59207065 171.83055715 183 172 C180.47903948 174.29305924 180.47903948 174.29305924 178.5 177.625 C178.0889502 178.24109131 177.67790039 178.85718262 177.25439453 179.49194336 C176.32949337 180.88030592 175.41488766 182.27556325 174.50878906 183.67626953 C171.69283896 188.01319721 168.77994841 192.28489194 165.875 196.5625 C164.92705566 197.96266357 164.92705566 197.96266357 163.95996094 199.39111328 C157.02695033 209.55825716 149.56974557 219.30201287 142 229 C141.41541016 229.74975098 140.83082031 230.49950195 140.22851562 231.27197266 C137.16703741 235.19304711 134.09165516 239.10268046 131 243 C170.59156621 251.83239256 212.02387507 239.00019746 245.64550781 218.15478516 C255.97405381 211.57770972 265.30024404 203.89293185 274.50878906 195.84594727 C278.80532516 192.09733742 278.80532516 192.09733742 281 191 C279.66000502 194.006818 278.20154709 195.99762609 275.8125 198.25 C273.32950311 200.64667593 271.06509688 203.08474494 268.875 205.75 C250.55807894 226.82256406 224.85362352 239.89435487 199 249 C197.84371094 249.42410156 196.68742187 249.84820312 195.49609375 250.28515625 C180.70377652 255.15421687 163.93759737 256.22528361 148.4375 256.3125 C147.38296631 256.31854248 147.38296631 256.31854248 146.30712891 256.32470703 C142.52166792 256.26749825 139.02595896 255.85431298 135.32421875 255.05078125 C127.5687589 253.13817232 127.5687589 253.13817232 120.19384766 255.11816406 C116.62764832 258.34427965 113.9436913 262.1886268 111.27441406 266.1640625 C109.49521406 268.72720119 107.43829819 270.97079369 105.3125 273.25 C103.12984109 275.65249506 100.95052024 278.05579632 98.796875 280.484375 C93.41006524 286.54924473 87.77772518 292.30836675 82 298 C79.04024296 300.9446047 76.10416864 303.91107892 73.1796875 306.890625 C66.26076768 313.91389048 59.42657709 320.82105409 51.65625 326.90625 C49.17118779 328.86506374 46.76976439 330.90051248 44.37744141 332.97094727 C11.75986276 361.11131552 -38.20644569 394.07188606 -83 393 C-83 392.67 -83 392.34 -83 392 C-82.32122803 391.84966309 -81.64245605 391.69932617 -80.94311523 391.54443359 C-67.82033716 388.60555329 -55.2638732 385.61297537 -43 380 C-41.68538426 379.43246104 -40.37025916 378.86610082 -39.0546875 378.30078125 C-15.92895352 368.13310317 5.06859218 353.03873508 24.07421875 336.5234375 C26.93833734 334.05318301 29.86165224 331.67802228 32.8125 329.3125 C36.74117422 326.11831705 40.37089272 322.78945732 43.85546875 319.1171875 C45.73882841 317.25784153 47.6674722 315.54194424 49.671875 313.81640625 C54.33875451 309.76340545 58.7043844 305.4427943 63.0625 301.0625 C63.82626953 300.30259766 64.59003906 299.54269531 65.37695312 298.75976562 C69.55419956 294.57537249 73.56330323 290.30520182 77.4206543 285.82446289 C79.67649387 283.21851311 82.02574182 280.7096015 84.375 278.1875 C88.73046429 273.47789632 92.83720083 268.61620581 96.85546875 263.61328125 C99.60958659 260.25717044 102.51871811 257.0591614 105.46875 253.875 C107.20578677 251.97455039 107.20578677 251.97455039 108 249 C107.08468506 248.85304688 107.08468506 248.85304688 106.15087891 248.703125 C99.78093549 247.57090751 94.23533786 245.71268632 88.375 243 C87.51326172 242.60554687 86.65152344 242.21109375 85.76367188 241.8046875 C77.38987091 237.87425399 69.62257164 233.22453107 62 228 C60.9790625 227.30519531 59.958125 226.61039063 58.90625 225.89453125 C44.98709344 215.92287743 32.95312537 203.90086069 23 190 C22.58588867 189.43941895 22.17177734 188.87883789 21.74511719 188.30126953 C8.87388836 170.80021054 0.80339852 150.80882191 -5 130 C-5.32484375 128.89398438 -5.6496875 127.78796875 -5.984375 126.6484375 C-12.88154653 100.53771672 -12.68718317 71.71397849 -9.26025391 45.09912109 C-9.02630627 43.21217756 -8.84384345 41.31902067 -8.66796875 39.42578125 C-7.27742614 26.02461789 -3.40519337 13.0015237 0 0 Z " fill="#F9F9F9" transform="translate(108,51)"/>
<path d="M0 0 C1.18851562 0.474375 2.37703125 0.94875 3.6015625 1.4375 C6.41267704 2.5997179 9.20737469 3.79418877 12 5 C19.68195059 8.27763225 26.75380031 9.69403665 35.0078125 10.5078125 C36.48894531 10.75144531 36.48894531 10.75144531 38 11 C38.33 11.66 38.66 12.32 39 13 C37.09541016 13.43699219 37.09541016 13.43699219 35.15234375 13.8828125 C12.89977604 19.12458635 -8.2854183 26.28991908 -21.6875 46.125 C-28.13125219 56.94021788 -32.25668975 68.31979012 -35.73510742 80.35620117 C-46.91653629 118.87082988 -67.86510394 154.0038569 -103.625 174.1875 C-131.61620499 189.45379145 -161.5670375 194.60762117 -193.125 195.5625 C-194.47657242 195.60581131 -195.82813506 195.64942902 -197.1796875 195.69335938 C-200.45304194 195.79857434 -203.72646125 195.90071479 -207 196 C-187.75945734 198.76984676 -168.38531425 198.19403225 -149 198 C-149.99 198.33 -150.98 198.66 -152 199 C-152.33 199.99 -152.66 200.98 -153 202 C-154.35546875 203.40234375 -154.35546875 203.40234375 -156.1875 204.9375 C-157.28384766 205.86369141 -157.28384766 205.86369141 -158.40234375 206.80859375 C-159.25957031 207.53175781 -160.11679687 208.25492188 -161 209 C-161.97066406 209.85722656 -162.94132813 210.71445312 -163.94140625 211.59765625 C-187.13372457 232.02982146 -213.04070346 249.76021746 -240.98291016 263.04101562 C-242.31384652 263.67378227 -243.64174492 264.31298412 -244.96630859 264.95898438 C-275.29063137 279.68431422 -307.91992621 286.84574001 -341 292 C-341 291.34 -341 290.68 -341 290 C-339.92105469 289.42894531 -338.84210938 288.85789062 -337.73046875 288.26953125 C-320.44794782 278.98110217 -304.75050758 268.03880013 -289.72802734 255.43994141 C-287.28450114 253.40378464 -284.79508798 251.42571981 -282.3125 249.4375 C-272.30999952 241.23725186 -263.06690024 232.21056591 -254 223 C-251.1693756 220.15984488 -248.32650134 217.33246051 -245.4765625 214.51171875 C-242.83638412 211.89401287 -240.20229997 209.27047334 -237.578125 206.63671875 C-236.9790332 206.03561279 -236.37994141 205.43450684 -235.76269531 204.81518555 C-232.6983786 201.6596184 -229.83256995 198.36257265 -227 195 C-225.94830587 193.78629283 -224.89471619 192.57422707 -223.83984375 191.36328125 C-223.26121582 190.69876953 -222.68258789 190.03425781 -222.08642578 189.34960938 C-220.92987138 188.02146598 -219.77329684 186.69334013 -218.61669922 185.36523438 C-218.07932129 184.74583984 -217.54194336 184.12644531 -216.98828125 183.48828125 C-216.46556641 182.89571533 -215.94285156 182.30314941 -215.40429688 181.69262695 C-213.81799975 179.85571172 -213.81799975 179.85571172 -212.11328125 177 C-210 175 -210 175 -206.3046875 174.94921875 C-204.82459671 175.17311649 -203.34798721 175.42083987 -201.875 175.6875 C-200.23671456 175.92144657 -198.59733341 176.14782702 -196.95703125 176.3671875 C-196.12510254 176.48030273 -195.29317383 176.59341797 -194.43603516 176.70996094 C-155.92326235 181.29536624 -114.23834886 168.40819791 -83.8046875 144.79296875 C-79.7987332 141.61118153 -75.88257632 138.33069969 -72 135 C-71.01644531 134.15953125 -70.03289062 133.3190625 -69.01953125 132.453125 C-63.01582325 127.18512101 -57.44380135 121.66570202 -53 115 C-53.57363281 115.55945313 -54.14726562 116.11890625 -54.73828125 116.6953125 C-91.16567974 151.0774701 -136.63276255 169.47370373 -186.58105469 168.21337891 C-191.79746119 167.88781912 -196.88010611 167.02597553 -202 166 C-198.8427614 161.78816661 -195.6833033 157.57802223 -192.51953125 153.37109375 C-177.93656142 134.1171915 -177.93656142 134.1171915 -164.1875 114.26953125 C-161.37794945 110.07025659 -158.47671772 105.93957879 -155.5625 101.8125 C-155.02955322 101.05662598 -154.49660645 100.30075195 -153.94750977 99.52197266 C-150.13106121 94.13106121 -150.13106121 94.13106121 -149 93 C-144.04241161 92.79387384 -139.40255895 93.27837429 -134.51171875 94.05859375 C-133.0770416 94.28201628 -131.64230633 94.50506592 -130.20751953 94.7277832 C-129.09887543 94.90236557 -129.09887543 94.90236557 -127.96783447 95.08047485 C-111.24201684 97.69918608 -94.96501326 99.29938259 -78 99 C-79.06992187 98.97421875 -80.13984375 98.9484375 -81.2421875 98.921875 C-102.88671444 98.1982198 -124.01342623 94.16533721 -145 89 C-143.7283392 85.5193849 -142.26307105 82.71595514 -140.05859375 79.7421875 C-139.47956299 78.95730957 -138.90053223 78.17243164 -138.30395508 77.36376953 C-137.6880249 76.54247559 -137.07209473 75.72118164 -136.4375 74.875 C-135.80416748 74.02405762 -135.17083496 73.17311523 -134.51831055 72.29638672 C-129.8441755 66.04872742 -125.04143197 59.95642496 -120 54 C-119.14261334 52.96926194 -118.28587495 51.9379844 -117.4296875 50.90625 C-86.80088531 14.14727718 -50.1628354 -20.12585873 0 0 Z " fill="#010101" transform="translate(440,129)"/>
<path d="M0 0 C3.7109419 3.39236917 6.30153911 7.21942913 9.0625 11.375 C14.36695701 19.21078493 20.00183157 26.6841943 26 34 C26.46486816 34.56928223 26.92973633 35.13856445 27.40869141 35.72509766 C37.62122116 48.15180195 48.69181844 59.96187711 61.36328125 69.9140625 C63.14562934 71.32409788 64.89305508 72.77924746 66.60546875 74.2734375 C95.64836266 99.58868213 131.37151105 115.22559256 168 126 C165.05679958 131.37943808 161.74788118 136.30746462 158.125 141.25 C157.55910156 142.02722412 156.99320313 142.80444824 156.41015625 143.60522461 C154.61081811 146.0731355 152.80579099 148.53680794 151 151 C150.41831055 151.79615723 149.83662109 152.59231445 149.23730469 153.41259766 C141.94242455 163.39560234 134.53409903 173.28236231 127 183.0859375 C122.95268349 188.35523227 118.97172427 193.67357908 115 199 C107.60325058 198.57326446 101.68840208 196.08018517 95 193 C93.88109375 192.49339844 92.7621875 191.98679687 91.609375 191.46484375 C77.04130487 184.55644278 64.93495745 174.72182044 53 164 C52.21238281 163.3090625 51.42476562 162.618125 50.61328125 161.90625 C17.13927917 130.72159742 1.44873705 79.48096963 -1 35 C-1.1145833 30.33021756 -1.14491365 25.66534186 -1.13037109 20.99438477 C-1.12492374 18.90829477 -1.13040096 16.82241237 -1.13671875 14.73632812 C-1.13605925 13.39583286 -1.13478075 12.05533773 -1.1328125 10.71484375 C-1.13168457 9.51980225 -1.13055664 8.32476074 -1.12939453 7.09350586 C-1.02207875 4.52784865 -0.75798276 2.43615811 0 0 Z " fill="#8B52FE" transform="translate(111,92)"/>
<path d="M0 0 C0.66 0 1.32 0 2 0 C1.45309586 5.24817622 -1.14972531 9.33779692 -3.75 13.8125 C-4.47775635 15.06522705 -4.47775635 15.06522705 -5.22021484 16.34326172 C-24.47775104 48.59000303 -55.73215524 71.06502571 -92.0625 80.3125 C-109.26572223 84.25163701 -126.50771798 86.0294374 -144.125 86.5625 C-145.47657242 86.60581131 -146.82813506 86.64942902 -148.1796875 86.69335938 C-151.45304194 86.79857434 -154.72646125 86.90071479 -158 87 C-138.75945734 89.76984676 -119.38531425 89.19403225 -100 89 C-100.99 89.33 -101.98 89.66 -103 90 C-103.33 90.99 -103.66 91.98 -104 93 C-105.35546875 94.40234375 -105.35546875 94.40234375 -107.1875 95.9375 C-108.28384766 96.86369141 -108.28384766 96.86369141 -109.40234375 97.80859375 C-110.25957031 98.53175781 -111.11679687 99.25492187 -112 100 C-112.97066406 100.85722656 -113.94132813 101.71445312 -114.94140625 102.59765625 C-138.13372457 123.02982146 -164.04070346 140.76021746 -191.98291016 154.04101562 C-193.31384652 154.67378227 -194.64174492 155.31298412 -195.96630859 155.95898438 C-226.29063137 170.68431422 -258.91992621 177.84574001 -292 183 C-292 182.34 -292 181.68 -292 181 C-290.92105469 180.42894531 -289.84210938 179.85789062 -288.73046875 179.26953125 C-271.44794782 169.98110217 -255.75050758 159.03880013 -240.72802734 146.43994141 C-238.28450114 144.40378464 -235.79508798 142.42571981 -233.3125 140.4375 C-223.30999952 132.23725186 -214.06690024 123.21056591 -205 114 C-202.1693756 111.15984488 -199.32650134 108.33246051 -196.4765625 105.51171875 C-193.83638412 102.89401287 -191.20229997 100.27047334 -188.578125 97.63671875 C-187.9790332 97.03561279 -187.37994141 96.43450684 -186.76269531 95.81518555 C-183.6983786 92.6596184 -180.83256995 89.36257265 -178 86 C-176.94830587 84.78629283 -175.89471619 83.57422707 -174.83984375 82.36328125 C-174.26121582 81.69876953 -173.68258789 81.03425781 -173.08642578 80.34960938 C-171.92987138 79.02146598 -170.77329684 77.69334013 -169.61669922 76.36523438 C-169.07932129 75.74583984 -168.54194336 75.12644531 -167.98828125 74.48828125 C-167.46556641 73.89571533 -166.94285156 73.30314941 -166.40429688 72.69262695 C-164.81799975 70.85571172 -164.81799975 70.85571172 -163.11328125 68 C-161 66 -161 66 -157.3046875 65.94921875 C-155.82459671 66.17311649 -154.34798721 66.42083987 -152.875 66.6875 C-151.23671456 66.92144657 -149.59733341 67.14782702 -147.95703125 67.3671875 C-147.12510254 67.48030273 -146.29317383 67.59341797 -145.43603516 67.70996094 C-106.92326235 72.29536624 -65.23834886 59.40819791 -34.8046875 35.79296875 C-30.7987332 32.61118153 -26.88257632 29.33069969 -23 26 C-22.01644531 25.15953125 -21.03289062 24.3190625 -20.01953125 23.453125 C-15.48680213 19.47584378 -11.34540727 15.35102686 -7.47265625 10.7265625 C-6 9 -6 9 -4.4140625 7.47265625 C-2.32251989 5.29444751 -1.26723261 2.71549844 0 0 Z " fill="#030303" transform="translate(391,238)"/>
<path d="M0 0 C0.99 0.495 0.99 0.495 2 1 C-3.56035644 6.9019483 -9.67943869 11.93722248 -16 17 C-17.11422037 17.91552492 -18.22746831 18.83223434 -19.33984375 19.75 C-59.17366566 52.41990121 -122.35430113 89.96390805 -176 88 C-173.16290726 86.10860484 -171.38630149 85.43179777 -168.15234375 84.58984375 C-167.1679834 84.3271167 -166.18362305 84.06438965 -165.16943359 83.79370117 C-163.56962646 83.36988159 -163.56962646 83.36988159 -161.9375 82.9375 C-135.33077315 75.65742694 -109.79286697 65.9046182 -85.3046875 53.19140625 C-82.57478348 51.78018468 -79.83403446 50.39095452 -77.09375 49 C-64.38019775 42.51260186 -51.97885101 35.76447124 -40 28 C-39.06269043 27.3925293 -38.12538086 26.78505859 -37.15966797 26.15917969 C-24.43591192 17.87023432 -11.99571353 9.31431874 0 0 Z " fill="#F2F2F2" transform="translate(283,331)"/>
<path d="M0 0 C4.20780478 4.06754462 6.20976056 6.51635333 6.32775879 12.51942444 C6.33303589 13.25680344 6.33831299 13.99418243 6.34375 14.75390625 C6.3583728 15.52822495 6.37299561 16.30254364 6.38806152 17.10032654 C6.43453838 19.58766391 6.46863089 22.07492922 6.5 24.5625 C6.95168356 59.23442505 12.38870342 93.69920819 28 125 C28.37447266 125.75458496 28.74894531 126.50916992 29.13476562 127.28662109 C33.1698574 135.33815507 37.22312115 143.03812035 43 150 C42.67 150.66 42.34 151.32 42 152 C11.88603953 115.61501956 -1.27568369 67.66767193 -1.13037109 20.99438477 C-1.12492374 18.90829477 -1.13040096 16.82241237 -1.13671875 14.73632812 C-1.13605925 13.39583286 -1.13478075 12.05533773 -1.1328125 10.71484375 C-1.13168457 9.51980225 -1.13055664 8.32476074 -1.12939453 7.09350586 C-1.02207875 4.52784865 -0.75798276 2.43615811 0 0 Z " fill="#0A090D" transform="translate(111,92)"/>
<path d="M0 0 C3.3567904 1.46670572 5.60885392 3.35390601 8.25 5.875 C19.76142034 16.39056432 32.6075755 25.07614884 46 33 C46.67160156 33.40428223 47.34320313 33.80856445 48.03515625 34.22509766 C65.80033835 44.85639615 85.17444912 53.05985391 105 59 C106.02996094 59.31582031 107.05992187 59.63164062 108.12109375 59.95703125 C110.41025723 60.65235275 112.70191431 61.33490697 115 62 C114.01 63.65 113.02 65.3 112 67 C104.58186089 65.13835291 97.5533641 62.82526703 90.5 59.875 C89.5522168 59.48103027 88.60443359 59.08706055 87.62792969 58.68115234 C58.77834502 46.56817982 33.49135787 30.72953606 10 10 C9.50048828 9.56220215 9.00097656 9.1244043 8.48632812 8.67333984 C2.43638578 3.36488913 2.43638578 3.36488913 0 1 C0 0.67 0 0.34 0 0 Z " fill="#0C0A11" transform="translate(164,156)"/>
<path d="M0 0 C5.84701895 0.47917559 11.68802266 0.86133215 17.546875 1.1640625 C18.37842102 1.20751801 19.20996704 1.25097351 20.06671143 1.29574585 C22.62514664 1.42875742 25.18366327 1.56011929 27.7421875 1.69140625 C29.50912102 1.78307911 31.27604815 1.87487521 33.04296875 1.96679688 C37.3176362 2.18891702 41.59238596 2.40938251 45.8671875 2.62890625 C45.8671875 2.95890625 45.8671875 3.28890625 45.8671875 3.62890625 C26.40513734 3.88444271 7.26732486 3.42181559 -12.1328125 1.62890625 C-12.1328125 1.29890625 -12.1328125 0.96890625 -12.1328125 0.62890625 C-7.91742059 -0.21393615 -4.27514166 -0.38593663 0 0 Z " fill="#C3C3C3" transform="translate(335.1328125,225.37109375)"/>
<path d="M0 0 C3.50048037 4.30570269 5.95635841 9.21249921 8.59570312 14.06835938 C10.77671976 18.01936913 13.04323377 21.55829716 16 25 C15.67 25.66 15.34 26.32 15 27 C1.36266447 9.80509868 1.36266447 9.80509868 -1 4 C-0.64453125 1.72265625 -0.64453125 1.72265625 0 0 Z " fill="#201C28" transform="translate(138,217)"/>
<path d="M0 0 C-3.19428541 3.65158431 -6.76289871 3.97464988 -11.375 4.6875 C-12.50808594 4.88182617 -12.50808594 4.88182617 -13.6640625 5.08007812 C-17.47936722 5.71040382 -21.11922971 6.16234298 -25 6 C-21.19226307 3.46150871 -17.43944336 2.52697203 -13.0625 1.3125 C-12.25103516 1.07466797 -11.43957031 0.83683594 -10.60351562 0.59179688 C-9.81783203 0.37201172 -9.03214844 0.15222656 -8.22265625 -0.07421875 C-7.50859619 -0.27619873 -6.79453613 -0.47817871 -6.05883789 -0.6862793 C-3.74877514 -1.03828103 -2.20769403 -0.70940527 0 0 Z " fill="#CECECE" transform="translate(132,413)"/>
<path d="M0 0 C0.59554688 0.309375 1.19109375 0.61875 1.8046875 0.9375 C-0.14967377 1.49332752 -2.10898232 2.03178713 -4.0703125 2.5625 C-5.16085937 2.86414063 -6.25140625 3.16578125 -7.375 3.4765625 C-8.30570312 3.62867188 -9.23640625 3.78078125 -10.1953125 3.9375 C-10.8553125 3.2775 -11.5153125 2.6175 -12.1953125 1.9375 C-9.5553125 1.2775 -6.9153125 0.6175 -4.1953125 -0.0625 C-5.24332031 -0.18367187 -6.29132813 -0.30484375 -7.37109375 -0.4296875 C-8.75005136 -0.59853945 -10.12895489 -0.76783341 -11.5078125 -0.9375 C-12.54325195 -1.05544922 -12.54325195 -1.05544922 -13.59960938 -1.17578125 C-17.15170721 -1.62193847 -19.1650154 -2.04230193 -22.1953125 -4.0625 C-15.76928157 -6.20451031 -6.01130485 -2.90938598 0 0 Z " fill="#B1B1B1" transform="translate(482.1953125,141.0625)"/>
<path d="M0 0 C3.44492766 1.49541178 5.77991792 3.49202244 8.5 6.0625 C14.0382018 11.15433927 19.92035203 15.58128679 26 20 C25.34 20.66 24.68 21.32 24 22 C4.74383408 5.60173767 4.74383408 5.60173767 0 1 C0 0.67 0 0.34 0 0 Z " fill="#2F2640" transform="translate(164,156)"/>
<path d="M0 0 C0.66 0.33 1.32 0.66 2 1 C-2.94409802 6.2302516 -8.23424506 10.69856377 -14 15 C-14.66 14.67 -15.32 14.34 -16 14 C-13.06006416 9.9825634 -9.76235288 7.07197856 -5.75 4.1875 C-4.91855469 3.57745117 -4.91855469 3.57745117 -4.0703125 2.95507812 C-2.71789547 1.96408289 -1.35955093 0.98118534 0 0 Z " fill="#EBEBEB" transform="translate(283,331)"/>
<path d="M0 0 C4.21654356 1.48635116 7.62478605 3.61249159 11.3125 6.125 C12.38113281 6.84945312 13.44976562 7.57390625 14.55078125 8.3203125 C15.76314453 9.15175781 15.76314453 9.15175781 17 10 C16.67 10.99 16.34 11.98 16 13 C13.70367877 11.40216813 11.41300477 9.79716285 9.125 8.1875 C8.47402344 7.73568359 7.82304687 7.28386719 7.15234375 6.81835938 C6.21455078 6.15610352 6.21455078 6.15610352 5.2578125 5.48046875 C4.6817627 5.07723389 4.10571289 4.67399902 3.51220703 4.25854492 C2 3 2 3 0 0 Z " fill="#13101A" transform="translate(189,177)"/>
<path d="M0 0 C0 0.66 0 1.32 0 2 C-1.41396902 2.50757862 -2.83131729 3.00574925 -4.25 3.5 C-5.43335938 3.91765625 -5.43335938 3.91765625 -6.640625 4.34375 C-9 5 -9 5 -13 5 C-13 4.34 -13 3.68 -13 3 C-11.21189234 2.30329584 -9.41937948 1.61788811 -7.625 0.9375 C-6.62726562 0.55464844 -5.62953125 0.17179687 -4.6015625 -0.22265625 C-2 -1 -2 -1 0 0 Z " fill="#E1E1E1" transform="translate(63,434)"/>
<path d="M0 0 C2.32472205 2.85306797 3.7508258 5.54074837 5 9 C4.01 9 3.02 9 2 9 C0.25 6.75 0.25 6.75 -1 4 C-0.6875 1.6875 -0.6875 1.6875 0 0 Z " fill="#140F1F" transform="translate(138,217)"/>
<path d="M0 0 C-1.3125 1.5 -1.3125 1.5 -3 3 C-3.99 3 -4.98 3 -6 3 C-6.33 2.01 -6.66 1.02 -7 0 C-3.86650268 -1.04449911 -3.01031744 -0.93423645 0 0 Z " fill="#D7D7D7" transform="translate(132,413)"/>
<path d="M0 0 C0.66 0.33 1.32 0.66 2 1 C-0.31 3.31 -2.62 5.62 -5 8 C-5.33 7.01 -5.66 6.02 -6 5 C-4.02 3.35 -2.04 1.7 0 0 Z " fill="#C4C4C4" transform="translate(283,331)"/>
<path d="M0 0 C-2.46278801 2.46278801 -4.70676982 2.99771255 -8 4 C-8 3.34 -8 2.68 -8 2 C-8.66 1.67 -9.32 1.34 -10 1 C-6.61981469 -0.04005702 -3.5219721 -0.08004482 0 0 Z " fill="#D8D8D8" transform="translate(472,144)"/>
</svg>
