<?xml version="1.0" encoding="UTF-8"?>
<svg version="1.1" xmlns="http://www.w3.org/2000/svg" width="500" height="500">
<path d="M0 0 C165 0 330 0 500 0 C500 165 500 330 500 500 C335 500 170 500 0 500 C0 335 0 170 0 0 Z " fill="#FEFEFE" transform="translate(0,0)"/>
<path d="M0 0 C3.50203724 2.84407873 6.78447218 5.83667231 10 9 C10.7734375 9.76054688 11.546875 10.52109375 12.34375 11.3046875 C26.46518815 26.05481981 34.43679326 46.18921272 34.3125 66.5625 C34.30758545 67.52269043 34.3026709 68.48288086 34.29760742 69.47216797 C33.95556673 90.52433417 27.1799846 109.07463571 12.62890625 124.5859375 C-3.24288582 139.16062918 -22.92394383 144.43580733 -44 144.375 C-44.73809906 144.37412384 -45.47619812 144.37324768 -46.23666382 144.37234497 C-57.33829176 144.32879854 -67.43238203 143.64505508 -78 140 C-79.68877822 139.45044749 -81.3775819 138.90097322 -83.06640625 138.3515625 C-91.95141266 135.39343278 -100.5818217 132.11243835 -109 128 C-109.10086914 128.68570068 -109.20173828 129.37140137 -109.30566406 130.07788086 C-110.64947961 138.69499107 -112.60902199 147.11593938 -114.75 155.5625 C-114.9280719 156.26820129 -115.1061438 156.97390259 -115.28961182 157.70098877 C-125.95168363 199.83396436 -140.05076559 244.91191507 -179.3125 268.6875 C-203.33238134 282.76569176 -230.0641803 290.89742788 -258 291 C-258.76666992 291.00402832 -259.53333984 291.00805664 -260.32324219 291.01220703 C-291.70221752 290.90167189 -320.19317891 276.99363512 -343 256 C-343.49951172 255.54963379 -343.99902344 255.09926758 -344.51367188 254.63525391 C-365.00393994 236.00349845 -377.47932497 211.68615592 -384 185 C-384.17644043 184.31035156 -384.35288086 183.62070312 -384.53466797 182.91015625 C-389.83395954 161.35585239 -389.10455887 135.23303017 -383 114 C-382.81808105 113.33983887 -382.63616211 112.67967773 -382.44873047 111.99951172 C-374.40884365 83.43959205 -356.65313004 56.85987356 -333 39 C-331.55560547 37.89011719 -331.55560547 37.89011719 -330.08203125 36.7578125 C-306.91622347 19.78717004 -279.25447937 12.54607467 -250.8125 12.6875 C-250.08932587 12.68865814 -249.36615173 12.68981628 -248.62106323 12.69100952 C-233.90990316 12.73754646 -219.9681098 14.05149879 -206 19 C-206 19.66 -206 20.32 -206 21 C-210.59938273 21.14562689 -214.73525127 20.77223602 -219.25219727 19.93212891 C-245.99629618 15.06156042 -272.34456394 17.68908409 -298 26 C-297.67 26.33 -297.34 26.66 -297 27 C-294.66474243 26.59622643 -292.37484974 26.13485988 -290.0625 25.625 C-260.76036878 19.5093227 -230.45857614 24.55153447 -202.79443359 35.30322266 C-201.19947122 35.92254546 -199.59448136 36.51590373 -197.98828125 37.10546875 C-185.96376695 41.75092267 -173.36961818 48.28189657 -163 56 C-163 56.66 -163 57.32 -163 58 C-162.13463623 58.25797363 -161.26927246 58.51594727 -160.37768555 58.78173828 C-156.91465194 60.03078329 -154.09286184 61.57093743 -150.95703125 63.4921875 C-150.39539276 63.83424225 -149.83375427 64.176297 -149.25509644 64.52871704 C-147.43717879 65.63819505 -145.62479404 66.75636406 -143.8125 67.875 C-142.55012439 68.6481757 -141.2875084 69.42095906 -140.0246582 70.19335938 C-132.1040502 75.04687402 -124.23336634 79.97735442 -116.39208984 84.95800781 C-109.33652035 89.43620741 -102.22022772 93.79228126 -95 98 C-94.30052246 98.40992188 -93.60104492 98.81984375 -92.88037109 99.2421875 C-76.95123474 108.52334397 -62.180911 116.14514539 -43.5 116.375 C-42.37851562 116.41238281 -41.25703125 116.44976562 -40.1015625 116.48828125 C-29.206464 116.60150976 -19.69433815 113.57524624 -11.6875 105.96875 C-6.09824341 99.44795065 -3.83727985 93.04835588 -4 84.5625 C-4.06382702 80.48156003 -4.10316345 76.92328055 -3 73 C-2.00352914 62.77392202 -4.54580753 54.06774059 -11 46 C-13.58305588 43.56099916 -16.25382462 41.25293029 -19 39 C-18.34 40.32 -17.68 41.64 -17 43 C-21.33063795 44.07719151 -23.29798489 44.38527258 -27.28125 42.19921875 C-28.36904208 41.38139928 -29.44195732 40.5434591 -30.5 39.6875 C-35.74770646 35.55700598 -41.13176718 32.35400915 -48.0625 32.9375 C-61.26987839 34.89832239 -72.86400805 44.16800292 -80.625 54.5625 C-84.73071815 60.75999398 -87.9041285 67.47563873 -91.11523438 74.16601562 C-92.38186442 76.79154677 -93.68989182 79.39595782 -95 82 C-110.07186147 72.63549784 -110.07186147 72.63549784 -114 69 C-114 68.34 -114 67.68 -114 67 C-114.86625 66.5978125 -114.86625 66.5978125 -115.75 66.1875 C-118.77218796 64.59245635 -121.31382547 62.53607385 -124 60.4375 C-125.94017769 59.04299728 -127.85425551 58.03854033 -130 57 C-132.01182457 55.68457624 -134.01399663 54.3540932 -136 53 C-132.73512824 42.28614899 -126.22126646 33.41352058 -119 25 C-117.98486328 23.78376953 -117.98486328 23.78376953 -116.94921875 22.54296875 C-87.85656901 -11.23003415 -38.91153991 -29.48576317 0 0 Z " fill="#432779" transform="translate(428,114)"/>
<path d="M0 0 C1.21300781 0.0825 2.42601562 0.165 3.67578125 0.25 C21.82142146 2.00073514 38.70131351 8.06640806 55 16 C56.00208496 16.48339844 56.00208496 16.48339844 57.02441406 16.9765625 C68.15787356 22.37061673 79.07411218 28.20054447 90 34 C88.43591505 43.31972511 85.55565487 52.12692431 82.5625 61.0625 C82.29877594 61.85324921 82.03505188 62.64399841 81.76333618 63.45870972 C78.28687396 73.83288745 74.58353121 84.03675031 70.1875 94.0625 C69.76863525 95.0222876 69.34977051 95.9820752 68.91821289 96.97094727 C59.1678723 118.43083573 42.91771108 138.09713716 20.8125 147.375 C11.409906 150.6373749 2.87378886 152.56157658 -7.125 152.5 C-8.76033691 152.49141968 -8.76033691 152.49141968 -10.42871094 152.48266602 C-32.28550558 152.00436746 -50.76916821 142.00827522 -65.87109375 126.43359375 C-80.05514213 110.21953478 -85.26327872 89.25395162 -84.15527344 68.16064453 C-82.92352375 51.02073142 -75.90779896 35.35947409 -64 23 C-63.31421875 22.28585938 -62.6284375 21.57171875 -61.921875 20.8359375 C-45.69533523 5.27047898 -22.14379323 -1.63084323 0 0 Z " fill="#FEFEFE" transform="translate(183,183)"/>
<path d="M0 0 C0.79574432 0.00054382 1.59148865 0.00108765 2.41134644 0.00164795 C22.2629071 0.06391993 41.11913896 3.08103102 59.6875 10.375 C60.0175 11.035 60.3475 11.695 60.6875 12.375 C52.90283415 10.88767729 45.2245782 9.08851021 37.54296875 7.14257812 C26.59994035 4.45950968 15.86522667 4.13496699 4.625 4.125 C3.93808075 4.12432526 3.2511615 4.12365051 2.54342651 4.12295532 C-8.03828162 4.13943749 -18.02595502 4.68064516 -28.3125 7.375 C-28.9504248 7.53597168 -29.58834961 7.69694336 -30.24560547 7.86279297 C-58.34218627 15.11509662 -83.23053477 31.20890553 -98.3125 56.375 C-105.93261684 70.16393745 -110.20500022 84.32323901 -112.69921875 99.8203125 C-113.3125 103.375 -113.3125 103.375 -114.3125 106.375 C-114.81604054 139.17706974 -99.71364421 171.00864154 -77.31640625 194.4296875 C-58.58723593 213.25203778 -35.10486188 223.55835411 -9.3125 228.375 C-8.38783936 228.5507959 -7.46317871 228.7265918 -6.51049805 228.90771484 C-1.03754098 229.70741252 4.46777202 229.60005317 9.98803711 229.61523438 C12.08814803 229.62483159 14.18723197 229.65585225 16.28710938 229.6875 C28.99084553 229.78937139 41.24288837 228.20801854 52.875 222.75 C53.62910156 222.40372559 54.38320312 222.05745117 55.16015625 221.70068359 C77.04120896 211.26891038 90.45032021 192.02881089 101.6875 171.375 C100.924375 172.4475 100.16125 173.52 99.375 174.625 C82.21344263 197.33291549 57.89534852 212.56828142 29.6875 217.375 C27.68794515 217.41719459 25.68680581 217.42769034 23.6875 217.375 C26.61837083 215.08025409 29.62811646 213.19496064 32.87109375 211.37109375 C44.09443007 204.99018569 54.78856981 198.68352035 64.6875 190.375 C65.75086925 189.52127205 66.81602034 188.66975942 67.8828125 187.8203125 C73.75324401 183.10466137 78.97470812 178.24907792 83.6875 172.375 C84.30882812 171.65183594 84.93015625 170.92867187 85.5703125 170.18359375 C100.24102693 152.72256697 108.54165305 131.84177388 115.25 110.3125 C115.4740451 109.59401886 115.69809021 108.87553772 115.92892456 108.13528442 C118.60649207 100.39021207 118.60649207 100.39021207 119.6875 92.375 C118.0375 91.715 116.3875 91.055 114.6875 90.375 C114.6875 87.075 114.6875 83.775 114.6875 80.375 C131.6875 88.875 131.6875 88.875 148.6875 97.375 C148.07920256 102.89840264 147.1480608 108.18686287 145.83203125 113.58203125 C145.65013245 114.34051361 145.46823364 115.09899597 145.28082275 115.88046265 C144.69341921 118.31769833 144.09794844 120.75283107 143.5 123.1875 C143.19363113 124.43861069 143.19363113 124.43861069 142.881073 125.71499634 C139.92326626 137.75570623 136.91170068 149.70558688 132.6875 161.375 C132.33075195 162.36999512 131.97400391 163.36499023 131.60644531 164.39013672 C118.18417518 201.46352412 99.83757125 229.63189634 63.375 247.0625 C43.30984644 256.26100208 21.76926645 261.29392224 -0.3125 261.375 C-1.07916992 261.37902832 -1.84583984 261.38305664 -2.63574219 261.38720703 C-34.01471752 261.27667189 -62.50567891 247.36863512 -85.3125 226.375 C-85.81201172 225.92463379 -86.31152344 225.47426758 -86.82617188 225.01025391 C-107.31643994 206.37849845 -119.79182497 182.06115592 -126.3125 155.375 C-126.48894043 154.68535156 -126.66538086 153.99570312 -126.84716797 153.28515625 C-132.18098153 131.59043787 -131.23356779 105.77221063 -125.3125 84.375 C-125.02761719 83.25609375 -124.74273437 82.1371875 -124.44921875 80.984375 C-123.16711509 76.27675337 -123.16711509 76.27675337 -122.3125 74.375 C-121.3225 73.88 -121.3225 73.88 -120.3125 73.375 C-119.19200708 71.22270754 -118.14073445 69.07614012 -117.125 66.875 C-112.34950257 56.58587204 -105.08490805 48.78553239 -97.125 40.8125 C-96.33158203 39.99458984 -95.53816406 39.17667969 -94.72070312 38.33398438 C-93.56924805 37.17672852 -93.56924805 37.17672852 -92.39453125 35.99609375 C-91.70593018 35.2992749 -91.0173291 34.60245605 -90.30786133 33.88452148 C-88.3125 32.375 -88.3125 32.375 -84.3125 32.375 C-82.8320544 31.19092655 -82.8320544 31.19092655 -81.5 29.5 C-61.22100722 8.23283596 -28.30106419 -0.0726468 0 0 Z " fill="#6A5397" transform="translate(170.3125,143.625)"/>
<path d="M0 0 C0.33 -0.66 0.66 -1.32 1 -2 C27.75528265 5.9900108 51.78187859 18.59988677 74.6171875 34.5390625 C76.84844827 35.9070814 78.49752831 36.40646505 81 37 C82.68873879 38.64429829 84.35305515 40.31384218 86 42 C87.093125 42.721875 88.18625 43.44375 89.3125 44.1875 C90.199375 44.785625 91.08625 45.38375 92 46 C92 46.66 92 47.32 92 48 C92.51046875 48.22429687 93.0209375 48.44859375 93.546875 48.6796875 C96.99598163 50.53605381 100.08342773 52.82730426 103.25 55.125 C103.8996875 55.59292969 104.549375 56.06085938 105.21875 56.54296875 C106.81435483 57.69274282 108.40743025 58.84602566 110 60 C110.49628906 58.97261719 110.99257813 57.94523437 111.50390625 56.88671875 C120.52449817 38.39797392 130.7979447 20.83697236 150.78515625 12.72265625 C157.04305535 10.68083732 162.39504519 10.46679866 168.60546875 12.76171875 C172.55945925 14.80644141 175.91786296 17.6069255 179.32421875 20.453125 C181.96881291 22.31975709 181.96881291 22.31975709 185.33203125 21.734375 C186.21246094 21.49203125 187.09289062 21.2496875 188 21 C187.01 19.68 186.02 18.36 185 17 C192.58216334 19.63269561 197.34384474 25.20851898 200.9375 32.25 C204.85742099 40.59478095 204.5863719 48.9168552 203.20703125 57.91015625 C202.95590064 60.4451539 203.08515207 62.8929186 203.1875 65.4375 C203.23421295 73.89254328 199.72856066 80.03559916 194.05859375 86.14453125 C181.95175854 97.05676412 168.51518283 96.85853749 153.04785156 96.23388672 C146.76142149 95.75147723 141.63503959 93.8312974 136 91 C134.74827299 90.41089303 133.49562208 89.82374626 132.2421875 89.23828125 C128.10338011 87.26627629 124.04927488 85.14867183 120 83 C119.3095459 82.6380957 118.6190918 82.27619141 117.90771484 81.90332031 C107.49407527 76.416383 97.64317341 70.24875204 87.83007812 63.75537109 C77.77191844 57.12521693 67.43493593 51.0144801 57 45 C56.23606934 44.55946289 55.47213867 44.11892578 54.68505859 43.66503906 C50.79865686 41.42802238 46.9044492 39.20541414 43 37 C43 36.34 43 35.68 43 35 C42.34257812 34.76925781 41.68515625 34.53851563 41.0078125 34.30078125 C37.07531486 32.6001037 33.53328013 30.40641023 29.875 28.1875 C23.40772023 24.3358207 16.99966319 20.80755721 10 18 C8.8140625 17.52046875 7.628125 17.0409375 6.40625 16.546875 C-12.18896383 9.21443616 -31.95943328 3.87363105 -52 3 C-53.02738281 2.94714844 -54.05476563 2.89429688 -55.11328125 2.83984375 C-65.1352319 2.56898022 -74.80447205 4.07294396 -84.67919922 5.63623047 C-87.78195773 6.12256649 -90.88978829 6.5641472 -94 7 C-91.44270727 3.16406091 -88.79286695 2.68040275 -84.5625 1.5 C-83.80098633 1.28641846 -83.03947266 1.07283691 -82.25488281 0.8527832 C-54.9485438 -6.52015133 -27.6337456 -5.02735616 0 0 Z " fill="#8060C0" transform="translate(222,135)"/>
<path d="M0 0 C1.4152556 -0.02724921 2.83066619 -0.04650808 4.24609375 -0.0625 C5.0342749 -0.07410156 5.82245605 -0.08570313 6.63452148 -0.09765625 C10.01159576 0.04176265 12.80970121 0.91394084 16 2 C16 2.66 16 3.32 16 4 C17.98 4.66 19.96 5.32 22 6 C20.61372274 14.40438225 18.14271736 22.37530024 15.4375 30.4375 C15.21690918 31.09718781 14.99631836 31.75687561 14.76904297 32.43655396 C7.56574538 53.8467507 -1.70794766 72.91595731 -17.45703125 89.31640625 C-20.05635124 91.98663945 -20.05635124 91.98663945 -22.41796875 95.0078125 C-25.20787964 98.24090137 -28.1205503 100.73360795 -31.5 103.3125 C-32.42510376 104.02515015 -32.42510376 104.02515015 -33.36889648 104.75219727 C-45.96166123 114.37759951 -59.16915949 122.29702018 -73 130 C-47.90146494 127.87696979 -24.24997302 115.06621779 -7 97 C-4.7671624 94.18113526 -2.67623367 91.32199661 -0.65625 88.34765625 C0.77091451 86.32471788 2.18810988 84.67378874 4 83 C2.54419595 88.13111262 0.26936507 92.22838519 -2.5625 96.6875 C-3.00722656 97.39084473 -3.45195312 98.09418945 -3.91015625 98.81884766 C-7.84241569 104.93367866 -12.13565745 110.58957409 -17 116 C-17.75667969 116.85078125 -18.51335937 117.7015625 -19.29296875 118.578125 C-34.56975002 134.82683852 -55.56439417 143.67815446 -77.76171875 144.43359375 C-80.40626242 144.45647954 -83.04369151 144.46125874 -85.6875 144.4375 C-86.37877991 144.43545563 -87.07005981 144.43341125 -87.7822876 144.43130493 C-99.54386997 144.37493952 -110.63987533 143.11765052 -122 140 C-122.99257812 139.74992188 -123.98515625 139.49984375 -125.0078125 139.2421875 C-127.38909265 138.59274746 -129.6814841 137.84491685 -132 137 C-132.90105469 136.67644531 -133.80210937 136.35289062 -134.73046875 136.01953125 C-167.0704215 123.50221796 -189.82279483 98.02618482 -204.28515625 67.20703125 C-205 65 -205 65 -204 62 C-203.61070312 62.81082031 -203.22140625 63.62164062 -202.8203125 64.45703125 C-193.48585809 82.93236843 -178.38271361 94.9230897 -158.74609375 101.48046875 C-150.62413389 104.02835629 -142.46165431 105.98223459 -134 107 C-133.10925781 107.11085938 -132.21851563 107.22171875 -131.30078125 107.3359375 C-124.79010719 108.00788991 -118.28919397 108.09988605 -111.75 108.125 C-110.49026367 108.13200928 -110.49026367 108.13200928 -109.20507812 108.13916016 C-104.04943619 108.12591444 -99.10282747 107.74073302 -94 107 C-94 106.67 -94 106.34 -94 106 C-93.25878906 105.91363281 -92.51757812 105.82726562 -91.75390625 105.73828125 C-67.7038422 102.52964357 -47.59854515 93.04158104 -32.1640625 73.69921875 C-30.34555431 71.18539861 -28.65914238 68.62166968 -27 66 C-26.39800781 65.07703125 -25.79601562 64.1540625 -25.17578125 63.203125 C-13.33723001 43.89644103 -6.46657286 21.55994308 0 0 Z " fill="#07040C" transform="translate(269,230)"/>
<path d="M0 0 C3.50203724 2.84407873 6.78447218 5.83667231 10 9 C10.7734375 9.76054688 11.546875 10.52109375 12.34375 11.3046875 C26.73343934 26.33501369 34.45397132 46.54938601 34.1875 67.25 C34.1865332 68.70019531 34.1865332 68.70019531 34.18554688 70.1796875 C34.15808214 74.61066494 33.97048765 78.66112154 33 83 C32.67 83 32.34 83 32 83 C31.86464844 82.030625 31.72929687 81.06125 31.58984375 80.0625 C29.96072309 69.5289348 26.79988855 60.49603675 22 51 C21.45214844 49.91589844 20.90429688 48.83179688 20.33984375 47.71484375 C10.75799411 30.15944548 -3.14567303 20.95144232 -21.75 14.75 C-36.20087683 11.41518227 -51.34459125 12.26668028 -65.2578125 17.4140625 C-67 18 -67 18 -69 18 C-69.01458252 18.6705542 -69.02916504 19.3411084 -69.04418945 20.03198242 C-69.118883 23.08438822 -69.21547299 26.13572585 -69.3125 29.1875 C-69.33505859 30.24259766 -69.35761719 31.29769531 -69.38085938 32.38476562 C-69.4340332 33.91713867 -69.4340332 33.91713867 -69.48828125 35.48046875 C-69.51446533 36.41785889 -69.54064941 37.35524902 -69.56762695 38.32104492 C-70.36268113 43.24714853 -73.21420334 46.36661284 -76.625 49.8125 C-84.8708567 58.90875813 -90.26884485 70.77836567 -95 82 C-110.07186147 72.63549784 -110.07186147 72.63549784 -114 69 C-114 68.34 -114 67.68 -114 67 C-114.5775 66.731875 -115.155 66.46375 -115.75 66.1875 C-118.77218796 64.59245635 -121.31382547 62.53607385 -124 60.4375 C-125.94017769 59.04299728 -127.85425551 58.03854033 -130 57 C-132.01182457 55.68457624 -134.01399663 54.3540932 -136 53 C-132.73512824 42.28614899 -126.22126646 33.41352058 -119 25 C-117.98486328 23.78376953 -117.98486328 23.78376953 -116.94921875 22.54296875 C-87.85656901 -11.23003415 -38.91153991 -29.48576317 0 0 Z " fill="#22153C" transform="translate(428,114)"/>
<path d="M0 0 C7.0339602 4.88800624 12.47320616 11.46587291 14.375 19.9375 C14.62455521 21.6193981 14.83313614 23.30789614 15 25 C15.0825 25.82628906 15.165 26.65257812 15.25 27.50390625 C15.64915001 35.47443302 13.13450148 41.67268888 8.875 48.3125 C0.35621454 56.27571249 -10.45197501 58.38835476 -21.75 58.3125 C-23.07378662 58.30404053 -23.07378662 58.30404053 -24.42431641 58.29541016 C-38.28147096 58.03865495 -51.27760807 53.36210035 -63 46 C-62.36583667 41.25756117 -60.45991336 37.4583172 -58.3125 33.25 C-57.95091797 32.5377124 -57.58933594 31.8254248 -57.21679688 31.09155273 C-49.05346515 15.24349169 -38.20915253 2.22743652 -21 -4 C-13.53834641 -6.29701885 -6.3919067 -4.08662887 0 0 Z " fill="#FDFDFE" transform="translate(396,151)"/>
<path d="M0 0 C0.72317413 0.00115814 1.44634827 0.00231628 2.19143677 0.00350952 C16.90259684 0.05004646 30.8443902 1.36399879 44.8125 6.3125 C44.8125 6.9725 44.8125 7.6325 44.8125 8.3125 C40.21311727 8.45812689 36.07724873 8.08473602 31.56030273 7.24462891 C4.81620382 2.37406042 -21.53206394 5.00158409 -47.1875 13.3125 C-46.6925 13.8075 -46.6925 13.8075 -46.1875 14.3125 C-43.85224243 13.90872643 -41.56234974 13.44735988 -39.25 12.9375 C-7.17009721 6.2420712 24.89455278 13.1960185 54.8125 25.3125 C54.8125 26.3025 54.8125 27.2925 54.8125 28.3125 C48.68924685 26.85615871 42.66414149 25.29202457 36.6875 23.3125 C12.71611206 16.0399669 -18.19296092 14.16516559 -42.1875 22.3125 C-42.94691895 22.55387695 -43.70633789 22.79525391 -44.48876953 23.04394531 C-60.36345609 28.13383272 -74.57082643 35.32070106 -87.1875 46.3125 C-88.39401856 47.31468881 -89.60208123 48.31502527 -90.8125 49.3125 C-91.988125 50.3025 -91.988125 50.3025 -93.1875 51.3125 C-93.1875 50.6525 -93.1875 49.9925 -93.1875 49.3125 C-95.92273872 51.57204503 -98.55894769 53.9298941 -101.1875 56.3125 C-101.71279297 56.78494141 -102.23808594 57.25738281 -102.77929688 57.74414062 C-113.52529185 67.53001234 -122.13541963 78.52677006 -127.1875 92.3125 C-128.55414444 88.21256668 -127.00656769 85.8055998 -125.3125 82.0625 C-124.99587402 81.35448242 -124.67924805 80.64646484 -124.35302734 79.91699219 C-114.76014363 59.02334803 -100.57218451 40.19430508 -82.1875 26.3125 C-80.74310547 25.20261719 -80.74310547 25.20261719 -79.26953125 24.0703125 C-56.10372347 7.09967004 -28.44197937 -0.14142533 0 0 Z " fill="#09080A" transform="translate(177.1875,126.6875)"/>
<path d="M0 0 C7.58216334 2.63269561 12.34384474 8.20851898 15.9375 15.25 C19.85742099 23.59478095 19.5863719 31.9168552 18.20703125 40.91015625 C17.95590064 43.4451539 18.08515207 45.8929186 18.1875 48.4375 C18.23421295 56.89254328 14.72856066 63.03559916 9.05859375 69.14453125 C-3.03479282 80.04464248 -16.47235968 79.86502935 -31.92578125 79.24707031 C-38.16786499 78.74540348 -43.41110358 76.81729111 -49 74 C-50.00804687 73.52304688 -51.01609375 73.04609375 -52.0546875 72.5546875 C-54.40024064 71.4176465 -56.70824572 70.24092686 -59 69 C-58.01 68.505 -58.01 68.505 -57 68 C-54.95228363 68.69628232 -52.93501885 69.48312083 -50.9375 70.3125 C-36.8905521 75.86343441 -23.81705237 76.99152292 -9.55859375 70.96875 C-2.2437567 67.2031991 4.24217869 61.7178043 9 55 C8.67 54.67 8.34 54.34 8 54 C7.40574219 54.40992188 6.81148438 54.81984375 6.19921875 55.2421875 C-8.01798722 64.48447692 -24.91387613 63.22680174 -41 60.25 C-41.85964355 60.09321777 -42.71928711 59.93643555 -43.60498047 59.77490234 C-50.98070685 58.28432249 -57.31526807 55.3611012 -64 52 C-64 51.34 -64 50.68 -64 50 C-62.7625 50.433125 -61.525 50.86625 -60.25 51.3125 C-58.50160974 51.8799837 -56.75148416 52.44213847 -55 53 C-53.72962891 53.42925781 -53.72962891 53.42925781 -52.43359375 53.8671875 C-38.99989008 57.8801004 -22.828507 57.96072042 -10 52 C-3.12757574 48.25945346 0.35527159 43.48242805 2.5859375 36.046875 C4.12249564 28.45105931 3.64015345 18.6264758 -0.24609375 11.81640625 C-1.42478167 10.15689379 -2.70362366 8.56929768 -4 7 C-3.67 6.34 -3.34 5.68 -3 5 C0.0625 4.375 0.0625 4.375 3 4 C2.01 2.68 1.02 1.36 0 0 Z " fill="#8B53FA" transform="translate(407,152)"/>
<path d="M0 0 C7.65749389 7.13895494 13.92526767 16.27166756 17.9375 25.9375 C17.4425 26.9275 17.4425 26.9275 16.9375 27.9375 C16.53660156 27.36902344 16.13570313 26.80054688 15.72265625 26.21484375 C5.91583552 12.8944682 -7.48278204 5.88406663 -23.76171875 3.39453125 C-31.15994396 2.4755938 -38.62683358 2.70513542 -46.0625 2.9375 C-46.3925 3.5975 -46.7225 4.2575 -47.0625 4.9375 C-48.320625 4.69 -49.57875 4.4425 -50.875 4.1875 C-59.76433602 3.22460489 -67.26434902 7.65310644 -74.28515625 12.66796875 C-76.0625 13.9375 -76.0625 13.9375 -78.0625 14.9375 C-77.9817614 10.99915122 -77.86890623 7.06236673 -77.75 3.125 C-77.72744141 2.00544922 -77.70488281 0.88589844 -77.68164062 -0.26757812 C-77.64619141 -1.34072266 -77.61074219 -2.41386719 -77.57421875 -3.51953125 C-77.54803467 -4.50928955 -77.52185059 -5.49904785 -77.49487305 -6.51879883 C-76.99823723 -9.44056541 -76.41071496 -10.31631109 -74.0625 -12.0625 C-48.8827987 -22.05171119 -20.71660204 -17.43381741 0 0 Z " fill="#956CE7" transform="translate(435.0625,143.0625)"/>
<path d="M0 0 C1.42567423 -0.02718807 2.85150028 -0.04648089 4.27734375 -0.0625 C5.46831665 -0.07990234 5.46831665 -0.07990234 6.68334961 -0.09765625 C9.69766851 0.02940957 12.22228485 0.86042455 15 2 C15.80893179 28.79586564 -5.26832822 58.83018806 -22.64355469 77.63305664 C-33.3570537 88.80796407 -46.9991486 97.78035122 -62 102 C-63.32 102 -64.64 102 -66 102 C-66 101.34 -66 100.68 -66 100 C-65.17757812 99.5875 -64.35515625 99.175 -63.5078125 98.75 C-48.42379745 90.946722 -36.13805098 80.4393582 -27 66 C-26.39800781 65.07703125 -25.79601562 64.1540625 -25.17578125 63.203125 C-13.33723001 43.89644103 -6.46657286 21.55994308 0 0 Z " fill="#040304" transform="translate(269,230)"/>
<path d="M0 0 C0.66 0.33 1.32 0.66 2 1 C1.91879294 4.39678803 1.80597981 7.79182382 1.6875 11.1875 C1.66494141 12.14720703 1.64238281 13.10691406 1.61914062 14.09570312 C1.33145729 21.65392882 -0.29115878 25.42378387 -5.625 30.8125 C-13.8708567 39.90875813 -19.26884485 51.77836567 -24 63 C-30.55258692 58.92872357 -36.92133531 54.75494402 -43 50 C-42.49727012 44.87058417 -40.67443532 41.1228634 -38 36.8125 C-37.59990723 36.15830078 -37.19981445 35.50410156 -36.78759766 34.83007812 C-33.01620802 28.79467476 -28.73789059 23.31137828 -24 18 C-23.46246094 17.36835938 -22.92492187 16.73671875 -22.37109375 16.0859375 C-16.92551998 10.1080896 -9.82218685 6.20815797 -3 2 C-2.01 1.34 -1.02 0.68 0 0 Z " fill="#353436" transform="translate(357,133)"/>
<path d="M0 0 C1.83258369 5.24621998 -0.73381994 9.23415466 -3 14 C-11.28527332 30.21905019 -24.687151 41.82643855 -41.77734375 48.00390625 C-60.96782691 53.97748522 -79.9245106 51.17472399 -98 43 C-98 42.67 -98 42.34 -98 42 C-97.02353516 42.01571045 -96.04707031 42.0314209 -95.04101562 42.04760742 C-91.33586238 42.10288119 -87.63074344 42.13669494 -83.92529297 42.16479492 C-82.33701402 42.17966405 -80.74877445 42.19996555 -79.16064453 42.22631836 C-54.88410719 42.61837137 -30.56845598 37.71246499 -12.328125 20.53125 C-6.75934939 14.47660806 -2.34431703 7.91206996 0 0 Z " fill="#4F3683" transform="translate(458,223)"/>
<path d="M0 0 C1.10029541 0.00870117 2.20059082 0.01740234 3.33422852 0.02636719 C15.30611136 0.24180634 25.79487232 2.40228075 36.75 7.375 C36.75 7.705 36.75 8.035 36.75 8.375 C35.80382812 8.35928955 34.85765625 8.3435791 33.8828125 8.32739258 C30.28947862 8.27208087 26.69618005 8.2382921 23.10253906 8.21020508 C21.56276066 8.1953442 20.02302277 8.17504961 18.48339844 8.14868164 C-4.51218068 7.76542199 -27.88428956 12.32565496 -46.12109375 27.3046875 C-53.1785885 34.16793928 -58.28316302 41.9973055 -61.25 51.375 C-62.67912581 47.96050182 -61.90038667 45.615839 -60.61157227 42.24804688 C-60.34787842 41.60931641 -60.08418457 40.97058594 -59.8125 40.3125 C-59.40632446 39.31766602 -59.40632446 39.31766602 -58.99194336 38.30273438 C-51.90756587 21.75190485 -38.60420457 10.36732769 -22.25 3.375 C-14.79046576 0.5395095 -7.93981122 -0.10446321 0 0 Z " fill="#3E276D" transform="translate(172.25,192.625)"/>
<path d="M0 0 C0.79574432 0.00054382 1.59148865 0.00108765 2.41134644 0.00164795 C22.2629071 0.06391993 41.11913896 3.08103102 59.6875 10.375 C60.0175 11.035 60.3475 11.695 60.6875 12.375 C52.90283415 10.88767729 45.2245782 9.08851021 37.54296875 7.14257812 C26.59994035 4.45950968 15.86522667 4.13496699 4.625 4.125 C3.59462112 4.12398788 3.59462112 4.12398788 2.54342651 4.12295532 C-8.03828162 4.13943749 -18.02595502 4.68064516 -28.3125 7.375 C-28.9504248 7.53597168 -29.58834961 7.69694336 -30.24560547 7.86279297 C-58.36905409 15.12203175 -83.18912708 31.21601628 -98.3125 56.375 C-104.15700354 66.85166407 -108.08750967 77.85496241 -111.3125 89.375 C-111.6425 89.375 -111.9725 89.375 -112.3125 89.375 C-110.4233503 67.58537565 -99.9101952 49.1982888 -85.3125 33.375 C-84.66925781 32.63894531 -84.02601562 31.90289062 -83.36328125 31.14453125 C-62.85744497 8.8594467 -29.15862009 -0.07484808 0 0 Z " fill="#7F7D83" transform="translate(170.3125,143.625)"/>
<path d="M0 0 C7.23287671 -0.48219178 7.23287671 -0.48219178 10.1875 1.375 C15.74979748 9.43074118 20.04687731 18.09493011 19 28 C16.85508309 37.503391 11.87972523 44.34092461 4 50 C-4.06992487 54.15586018 -12.49334246 54.13699132 -21.375 54.0625 C-22.39722656 54.05798828 -23.41945313 54.05347656 -24.47265625 54.04882812 C-26.98183194 54.037103 -29.4908849 54.02069176 -32 54 C-32 53.67 -32 53.34 -32 53 C-31.21238281 52.90203125 -30.42476563 52.8040625 -29.61328125 52.703125 C-12.2645571 50.39214746 -12.2645571 50.39214746 2 41 C7.59446071 32.52651857 7.90228304 23.63615934 6.3125 13.8125 C5.25341769 8.90361484 3.09095503 5.90436425 0 2 C0 1.34 0 0.68 0 0 Z " fill="#7B4ADB" transform="translate(403,157)"/>
<path d="M0 0 C2.31 0.99 4.62 1.98 7 3 C2.27712703 21.22779797 -4.01097062 39.12281843 -12.11083984 56.12792969 C-12.94345034 57.88093828 -13.74817482 59.64711534 -14.55078125 61.4140625 C-17.84589255 68.43060678 -21.85203374 74.21345014 -27 80 C-27.88945312 81.03060547 -27.88945312 81.03060547 -28.796875 82.08203125 C-32.85680285 86.48028642 -37.38842171 89.80594614 -42.375 93.0625 C-42.99455566 93.46927979 -43.61411133 93.87605957 -44.25244141 94.29516602 C-45.79374912 95.2655482 -47.39346287 96.14191521 -49 97 C-49.66 96.67 -50.32 96.34 -51 96 C-50.46632812 95.61070312 -49.93265625 95.22140625 -49.3828125 94.8203125 C-21.04936074 73.54571377 -9.33528206 36.64943003 -1.59130859 3.21508789 C-1 1 -1 1 0 0 Z " fill="#5E3CA3" transform="translate(259,217)"/>
<path d="M0 0 C11.33333333 5.66666667 22.66666667 11.33333333 34 17 C33.30564279 24.1720947 31.66237462 31.01245688 29.9375 38 C29.65583984 39.15628906 29.37417969 40.31257813 29.08398438 41.50390625 C28.39328783 44.33693276 27.6985301 47.16889673 27 50 C26.67 50 26.34 50 26 50 C25.90525391 49.195625 25.90525391 49.195625 25.80859375 48.375 C23.86716821 35.94987655 18.52419537 23.42946027 9 15 C8.34 14.67 7.68 14.34 7 14 C7 13.34 7 12.68 7 12 C4.69 11.34 2.38 10.68 0 10 C0 6.7 0 3.4 0 0 Z " fill="#8054D6" transform="translate(285,224)"/>
<path d="M0 0 C7.58216334 2.63269561 12.34384474 8.20851898 15.9375 15.25 C19.67990115 23.2168743 20.5146841 31.65591393 17.5 40.0625 C13.17208996 49.51477576 7.48741383 55.4510094 -1.875 59.94140625 C-14.17285942 64.10730613 -28.46892039 62.58449331 -41 60.25 C-41.85940186 60.09313721 -42.71880371 59.93627441 -43.60424805 59.7746582 C-50.98042604 58.28513461 -57.31514725 55.36116195 -64 52 C-64 51.34 -64 50.68 -64 50 C-62.7625 50.433125 -61.525 50.86625 -60.25 51.3125 C-49.08774149 54.97538732 -38.68341138 56.57002674 -27 57 C-27 57.33 -27 57.66 -27 58 C-16.22674652 58.46915781 -4.60106995 58.37234567 4 51 C9.07664495 45.86068042 13.14369954 40.36418398 14 33 C14.07605469 32.37609375 14.15210938 31.7521875 14.23046875 31.109375 C14.80521014 22.47272053 11.10010512 14.77521296 6 8 C6 7.34 6 6.68 6 6 C5.34 6 4.68 6 4 6 C2.61061923 4.03852126 1.2739589 2.03833424 0 0 Z " fill="#BB9AFB" transform="translate(407,152)"/>
<path d="M0 0 C1.5372742 4.61182259 -0.35626636 8.13126731 -1.875 12.625 C-2.19090088 13.5619873 -2.50680176 14.49897461 -2.83227539 15.46435547 C-12.88495223 44.19255285 -32.55428303 67.7602824 -59.83203125 81.41796875 C-65.47297418 83.87866354 -70.86977232 84.73913925 -77 85 C-74.01969054 83.01312702 -71.49101543 82.05187092 -68.125 80.875 C-36.82883153 68.93943242 -18.37861794 41.27829337 -5 12 C-3.26307557 8.02625581 -1.58950996 4.03490991 0 0 Z " fill="#777779" transform="translate(281,248)"/>
<path d="M0 0 C0.66 0.33 1.32 0.66 2 1 C0.94425781 1.76570313 0.94425781 1.76570313 -0.1328125 2.546875 C-15.68797454 14.00002303 -29.2122242 25.98950911 -40.0546875 42.1171875 C-41.64195667 44.46940566 -43.27211289 46.7504866 -45 49 C-49.75 48.125 -49.75 48.125 -52 47 C-50.51301645 42.32912226 -47.80001995 39.00832718 -44.625 35.375 C-44.0889917 34.75963379 -43.5529834 34.14426758 -43.00073242 33.51025391 C-31.39004999 20.39281576 -16.32150869 6.96117561 0 0 Z " fill="#5B3A9E" transform="translate(333,108)"/>
<path d="M0 0 C-3.0498002 1.63944659 -6.06510831 2.6854643 -9.375 3.6875 C-20.34533747 7.30409477 -30.30716287 12.34098437 -39 20 C-39.48291504 20.4134668 -39.96583008 20.82693359 -40.46337891 21.25292969 C-50.97209366 30.284412 -59.41772665 40.40770218 -67 52 C-67.33 51.34 -67.66 50.68 -68 50 C-60.39790378 30.18365712 -44.73500465 14.41251424 -25.7578125 5.47265625 C-16.9778103 1.69572263 -9.57031742 -0.34661109 0 0 Z " fill="#797384" transform="translate(378,106)"/>
<path d="M0 0 C0.99 0 1.98 0 3 0 C1.65415779 4.03752662 -0.95792197 5.05280033 -4.4375 7.125 C-10.9326668 11.15486007 -16.57852422 15.57852422 -22 21 C-22.76957031 21.76957031 -23.53914063 22.53914063 -24.33203125 23.33203125 C-37.49124525 37.20861296 -44.97721644 54.78071057 -50 73 C-50.33 73 -50.66 73 -51 73 C-49.11405515 51.24734065 -38.62344321 32.7716543 -24 17 C-23.26394531 16.2059375 -22.52789062 15.411875 -21.76953125 14.59375 C-15.70364946 8.30494412 -10.57004889 4.18452227 -2 2 C-1.34 1.34 -0.68 0.68 0 0 Z " fill="#918C9A" transform="translate(109,160)"/>
<path d="M0 0 C1.64046105 17.8305497 1.64046105 17.8305497 -2.15625 22.8515625 C-4.72146679 24.58382096 -7.11949848 25.88085433 -10 27 C-10.66 27.33 -11.32 27.66 -12 28 C-11.9192614 24.06165122 -11.80640623 20.12486673 -11.6875 16.1875 C-11.66494141 15.06794922 -11.64238281 13.94839844 -11.61914062 12.79492188 C-11.58369141 11.72177734 -11.54824219 10.64863281 -11.51171875 9.54296875 C-11.48553467 8.55321045 -11.45935059 7.56345215 -11.43237305 6.54370117 C-10.93478862 3.6163538 -10.35452714 2.7476224 -8 1 C-2.49438202 -1.24719101 -2.49438202 -1.24719101 0 0 Z " fill="#8C67D4" transform="translate(369,130)"/>
<path d="M0 0 C3.465 1.485 3.465 1.485 7 3 C4.52891267 12.8409969 1.26306008 22.40090092 -2 32 C-2.99 31.67 -3.98 31.34 -5 31 C-5.33 30.01 -5.66 29.02 -6 28 C-6.66 28 -7.32 28 -8 28 C-6.34266443 21.25765758 -4.63777203 14.52801454 -2.875 7.8125 C-2.54242188 6.54019531 -2.20984375 5.26789063 -1.8671875 3.95703125 C-1 1 -1 1 0 0 Z " fill="#6D45BD" transform="translate(259,217)"/>
<path d="M0 0 C0 0.99 0 1.98 0 3 C-14.11073142 9.74768811 -25.70959334 12.1824153 -41.25 12.125 C-42.3121875 12.12886719 -43.374375 12.13273437 -44.46875 12.13671875 C-45.49484375 12.13542969 -46.5209375 12.13414062 -47.578125 12.1328125 C-48.50012695 12.13168457 -49.42212891 12.13055664 -50.37207031 12.12939453 C-53.00631004 11.9996893 -55.43159679 11.58436106 -58 11 C-58 10.67 -58 10.34 -58 10 C-57.38705078 9.95512451 -56.77410156 9.91024902 -56.14257812 9.86401367 C-39.19796316 8.59190019 -23.16228803 6.82727 -7.109375 0.98828125 C-4 0 -4 0 0 0 Z " fill="#0A090B" transform="translate(430,257)"/>
<path d="M0 0 C-0.33 1.32 -0.66 2.64 -1 4 C-1.64324219 4.13535156 -2.28648437 4.27070313 -2.94921875 4.41015625 C-19.36903134 8.32186624 -32.69072896 17.93789438 -42 32 C-42.33 31.01 -42.66 30.02 -43 29 C-35.01192644 14.11313563 -17.36769718 -0.3276924 0 0 Z " fill="#0A080D" transform="translate(160,195)"/>
<path d="M0 0 C0.66 0.33 1.32 0.66 2 1 C1.91879294 4.39678803 1.80597981 7.79182382 1.6875 11.1875 C1.65366211 12.62706055 1.65366211 12.62706055 1.61914062 14.09570312 C1.27575677 23.11733342 1.27575677 23.11733342 -2 27 C-2.99 27.66 -3.98 28.32 -5 29 C-5.66 20.75 -6.32 12.5 -7 4 C-4.69 2.68 -2.38 1.36 0 0 Z " fill="#50446A" transform="translate(357,133)"/>
<path d="M0 0 C4.71590568 0.41610932 8.03624022 2.59065582 12 5 C12 7.64 12 10.28 12 13 C4.575 12.01 4.575 12.01 -3 11 C-1.125 1.125 -1.125 1.125 0 0 Z " fill="#533196" transform="translate(273,219)"/>
<path d="M0 0 C0.33 0 0.66 0 1 0 C0.54766602 6.57822841 -0.68710947 11.49853507 -3.625 17.375 C-3.98400391 18.11177979 -4.34300781 18.84855957 -4.71289062 19.60766602 C-11.00801268 32.29644489 -18.81320132 44.14378438 -30 53 C-28.59042941 49.79836227 -26.88828631 47.72554173 -24.4375 45.25 C-15.93933182 35.82811789 -10.69116317 24.07052927 -6.20678711 12.3203125 C-4.19291129 7.09645565 -4.19291129 7.09645565 -2 6 C-1.27306096 4.02111039 -0.60183749 2.02045442 0 0 Z " fill="#271C3B" transform="translate(249,253)"/>
<path d="M0 0 C1.85625 0.6496875 1.85625 0.6496875 3.75 1.3125 C14.91225851 4.97538732 25.31658862 6.57002674 37 7 C37 7.33 37 7.66 37 8 C42.61 8 48.22 8 54 8 C51.67243815 10.32756185 50.55046545 10.50563677 47.375 11.125 C46.55773437 11.29257813 45.74046875 11.46015625 44.8984375 11.6328125 C37.50277425 12.56972941 30.82385124 11.6530585 23.5625 10.25 C22.67240234 10.09273437 21.78230469 9.93546875 20.86523438 9.7734375 C14.79601207 8.62077293 9.52198093 6.75319201 4 4 C3.25564697 3.62907227 2.51129395 3.25814453 1.74438477 2.87597656 C1.16873779 2.5869043 0.59309082 2.29783203 0 2 C0 1.34 0 0.68 0 0 Z " fill="#B295EC" transform="translate(343,202)"/>
<path d="M0 0 C0 0.99 0 1.98 0 3 C-2.01953125 4.8046875 -2.01953125 4.8046875 -4.8125 6.875 C-14.0596266 14.19415426 -21.25093597 23.27324482 -27.46484375 33.26953125 C-27.97144531 33.84058594 -28.47804688 34.41164062 -29 35 C-30.32 35 -31.64 35 -33 35 C-31.5128546 30.32861386 -28.79910634 27.00951511 -25.625 23.375 C-24.83186401 22.45956421 -24.83186401 22.45956421 -24.02270508 21.52563477 C-16.88051663 13.42481999 -9.04031683 5.95839064 0 0 Z " fill="#0A090D" transform="translate(314,120)"/>
<path d="M0 0 C1.5625 1.5625 1.5625 1.5625 3 4 C2.62200336 9.4539515 1.03864961 13.96981682 -1.0625 18.9375 C-1.34416016 19.62134766 -1.62582031 20.30519531 -1.91601562 21.00976562 C-2.6035405 22.67613946 -3.30076175 24.33850727 -4 26 C-4.66 25.34 -5.32 24.68 -6 24 C-5.625 21.5625 -5.625 21.5625 -5 19 C-5 18.01 -5 17.02 -5 16 C-5.66 16.33 -6.32 16.66 -7 17 C-6.37321829 13.33827525 -5.35548154 10.1181005 -3.9375 6.6875 C-3.57527344 5.80449219 -3.21304688 4.92148438 -2.83984375 4.01171875 C-2.56269531 3.34785156 -2.28554687 2.68398437 -2 2 C-1.34 2 -0.68 2 0 2 C0 1.34 0 0.68 0 0 Z " fill="#603DA5" transform="translate(253,243)"/>
<path d="M0 0 C0.66 0.33 1.32 0.66 2 1 C2.05429278 3.70860665 2.09381211 6.41610901 2.125 9.125 C2.15013672 10.26582031 2.15013672 10.26582031 2.17578125 11.4296875 C2.21509708 15.99032384 1.98467409 19.7934895 0 24 C-1.3007021 25.04209012 -2.63120844 26.04911229 -4 27 C-3.9192614 23.06165122 -3.80640623 19.12486673 -3.6875 15.1875 C-3.66494141 14.06794922 -3.64238281 12.94839844 -3.61914062 11.79492188 C-3.58369141 10.72177734 -3.54824219 9.64863281 -3.51171875 8.54296875 C-3.48553467 7.55321045 -3.45935059 6.56345215 -3.43237305 5.54370117 C-2.94478784 2.67518042 -2.25128105 1.76905088 0 0 Z " fill="#6B5499" transform="translate(361,131)"/>
<path d="M0 0 C1.13431171 3.40293512 0.86631404 4.16962167 -0.22265625 7.46484375 C-0.51132568 8.34245361 -0.79999512 9.22006348 -1.09741211 10.12426758 C-1.41589111 11.05263428 -1.73437012 11.98100098 -2.0625 12.9375 C-2.38033447 13.87940186 -2.69816895 14.82130371 -3.02563477 15.79174805 C-5.46977635 22.86171465 -8.31332312 29.47741783 -12 36 C-12.66 35.34 -13.32 34.68 -14 34 C-14.99 34.495 -14.99 34.495 -16 35 C-14.38131043 30.69725886 -12.34224152 26.64810585 -10.25 22.5625 C-6.50134631 15.16836658 -3.16105773 7.66317025 0 0 Z " fill="#716D79" transform="translate(281,248)"/>
<path d="M0 0 C3.465 1.485 3.465 1.485 7 3 C6.54857225 4.77260631 6.08859477 6.5430368 5.625 8.3125 C5.36976563 9.29863281 5.11453125 10.28476563 4.8515625 11.30078125 C4 14 4 14 2 17 C1.01 15.02 0.02 13.04 -1 11 C-1.66 11 -2.32 11 -3 11 C-2.69217504 9.35328588 -2.37860766 7.70764424 -2.0625 6.0625 C-1.88847656 5.14597656 -1.71445312 4.22945312 -1.53515625 3.28515625 C-1 1 -1 1 0 0 Z " fill="#7A4DD4" transform="translate(259,217)"/>
<path d="M0 0 C5.66329327 0.60247801 10.64517117 2.09864773 16 4 C17.175625 4.391875 18.35125 4.78375 19.5625 5.1875 C20.366875 5.455625 21.17125 5.72375 22 6 C22 6.33 22 6.66 22 7 C13.95787245 7.16677223 6.01396246 6.6466598 -2 6 C-1.49396008 3.83125748 -1.00016187 2.00032373 0 0 Z " fill="#623CAE" transform="translate(187,194)"/>
<path d="M0 0 C0.66 0.33 1.32 0.66 2 1 C0.89205078 1.81791016 0.89205078 1.81791016 -0.23828125 2.65234375 C-7.3230036 7.91862402 -14.21451131 13.34987851 -21 19 C-21.66 18.34 -22.32 17.68 -23 17 C-22.360625 16.566875 -21.72125 16.13375 -21.0625 15.6875 C-18.73253997 14.08760823 -18.73253997 14.08760823 -18 11 C-15.7421875 9.31640625 -15.7421875 9.31640625 -12.875 7.5625 C-11.88371094 6.95535156 -10.89242188 6.34820312 -9.87109375 5.72265625 C-8.92363281 5.15417969 -7.97617187 4.58570312 -7 4 C-6.26910156 3.54496094 -5.53820312 3.08992188 -4.78515625 2.62109375 C-3.23032452 1.67767577 -1.61971184 0.8270869 0 0 Z M-27 20 C-26.34 20.33 -25.68 20.66 -25 21 C-27.31 23.31 -29.62 25.62 -32 28 C-32 25 -32 25 -29.5 22.3125 C-28.675 21.549375 -27.85 20.78625 -27 20 Z " fill="#483177" transform="translate(333,108)"/>
<path d="M0 0 C0.63786789 6.3217264 1.11828118 12.64832529 1.3125 19 C1.36857422 20.5778125 1.36857422 20.5778125 1.42578125 22.1875 C1 25 1 25 -3 29 C-3 20.42 -3 11.84 -3 3 C-3.66 2.67 -4.32 2.34 -5 2 C-2 0 -2 0 0 0 Z " fill="#423C4E" transform="translate(351,138)"/>
<path d="M0 0 C9.7551592 1.32865968 19.15838961 3.10036279 28.5625 6.0625 C29.38919189 6.3198291 30.21588379 6.5771582 31.06762695 6.84228516 C33.06771701 7.49595354 35.0378085 8.24010059 37 9 C37.495 9.99 37.495 9.99 38 11 C30.21533415 9.51267729 22.5370782 7.71351021 14.85546875 5.76757812 C8.91508623 4.31108434 3.09973662 3.44634217 -3 3 C-2.01 2.67 -1.02 2.34 0 2 C0 1.34 0 0.68 0 0 Z " fill="#726D7C" transform="translate(193,145)"/>
<path d="M0 0 C0.66 0.33 1.32 0.66 2 1 C1.34 1.66 0.68 2.32 0 3 C0.33 3.66 0.66 4.32 1 5 C0.52691406 5.29390625 0.05382812 5.5878125 -0.43359375 5.890625 C-10.06038993 12.42108322 -16.51386515 21.98088846 -20 33 C-21.4650113 28.49628572 -19.86369593 25.41994594 -18.0625 21.25 C-17.62647461 20.20392578 -17.62647461 20.20392578 -17.18164062 19.13671875 C-16.46448297 17.42024305 -15.73356598 15.70952768 -15 14 C-14.01 14 -13.02 14 -12 14 C-10.25597475 12.17409683 -10.25597475 12.17409683 -8.625 9.8125 C-5.9546118 6.21796471 -3.25929068 3.06175791 0 0 Z " fill="#533888" transform="translate(131,211)"/>
<path d="M0 0 C0.66 0 1.32 0 2 0 C0.4248064 9.56055002 -10.9577835 18.86869488 -18.140625 24.75390625 C-20 26 -20 26 -22 26 C-20.71001845 23.15805134 -19.36362413 21.12188057 -17.13671875 18.94140625 C-16.57919922 18.39033203 -16.02167969 17.83925781 -15.44726562 17.27148438 C-14.57618164 16.42553711 -14.57618164 16.42553711 -13.6875 15.5625 C-13.11837891 15.00240234 -12.54925781 14.44230469 -11.96289062 13.86523438 C-9.3703338 11.31434896 -6.76794568 8.77369909 -4.1640625 6.234375 C-2.19266396 4.1989238 -1.05980004 2.60132736 0 0 Z " fill="#7F7B85" transform="translate(260,292)"/>
<path d="M0 0 C-2.93648329 1.31478326 -5.87435739 2.6264295 -8.8125 3.9375 C-10.06256836 4.49727539 -10.06256836 4.49727539 -11.33789062 5.06835938 C-12.14033203 5.42607422 -12.94277344 5.78378906 -13.76953125 6.15234375 C-14.50792236 6.48226318 -15.24631348 6.81218262 -16.00708008 7.15209961 C-18 8 -18 8 -21 9 C-21 8.34 -21 7.68 -21 7 C-21.721875 7.474375 -22.44375 7.94875 -23.1875 8.4375 C-25.89475226 9.94152903 -27.96194275 10.56599182 -31 11 C-28.55263058 8.26614921 -25.89159696 6.63880441 -22.6875 4.875 C-21.76324219 4.35679687 -20.83898437 3.83859375 -19.88671875 3.3046875 C-16.86957648 1.94105351 -14.26670462 1.44444961 -11 1 C-9.80375 0.62875 -8.6075 0.2575 -7.375 -0.125 C-4.07467163 -0.98064069 -3.08725234 -0.95718304 0 0 Z " fill="#8A8496" transform="translate(133,153)"/>
<path d="M0 0 C7.03758953 2.07666576 14.02772625 4.63810721 20 9 C20.8125 11.19140625 20.8125 11.19140625 21 13 C15.80355921 11.40109514 10.93387858 9.25861997 6 7 C6 6.34 6 5.68 6 5 C3.69 4.34 1.38 3.68 -1 3 C-0.67 2.01 -0.34 1.02 0 0 Z " fill="#3E286C" transform="translate(232,153)"/>
<path d="M0 0 C4.455 1.98 4.455 1.98 9 4 C8.34 6.64 7.68 9.28 7 12 C4.69 11.34 2.38 10.68 0 10 C0 6.7 0 3.4 0 0 Z " fill="#7242CF" transform="translate(285,224)"/>
<path d="M0 0 C0.75410156 0.00322266 1.50820312 0.00644531 2.28515625 0.00976562 C3.06246094 0.01814453 3.83976563 0.02652344 4.640625 0.03515625 C5.43339844 0.03966797 6.22617188 0.04417969 7.04296875 0.04882812 C8.99222008 0.0605706 10.94143238 0.07850479 12.890625 0.09765625 C12.890625 1.08765625 12.890625 2.07765625 12.890625 3.09765625 C10.80789606 3.43474533 8.72441463 3.76718741 6.640625 4.09765625 C5.48046875 4.28328125 4.3203125 4.46890625 3.125 4.66015625 C-0.109375 5.09765625 -0.109375 5.09765625 -4.109375 5.09765625 C-4.109375 4.10765625 -4.109375 3.11765625 -4.109375 2.09765625 C-5.429375 1.76765625 -6.749375 1.43765625 -8.109375 1.09765625 C-5.33213575 0.3107718 -2.88327423 -0.02184299 0 0 Z " fill="#2C2044" transform="translate(164.109375,192.90234375)"/>
<path d="M0 0 C4.50417861 0.42896939 8.76754476 0.93492487 13.15625 2.03125 C18.32073671 3.20891799 23.28768554 3.22562009 28.5625 3.125 C29.47580078 3.11597656 30.38910156 3.10695312 31.33007812 3.09765625 C33.55367319 3.07437253 35.77668677 3.0416771 38 3 C34.27659854 6.72340146 29.10311685 6.21028899 24.0625 6.3125 C16.29891483 6.27436844 5.72708669 5.72708669 0 0 Z " fill="#935DFF" transform="translate(359,210)"/>
<path d="M0 0 C0.66 0 1.32 0 2 0 C-0.33779759 11.76960166 -10.9090815 22.80302286 -20 30 C-18.59938605 26.82760941 -16.9294045 24.76679594 -14.5 22.3125 C-9.85242198 17.25634369 -6.63201965 11.56635752 -3.32617188 5.58911133 C-2.26687231 3.69753513 -1.13930784 1.84449281 0 0 Z " fill="#201D26" transform="translate(239,276)"/>
<path d="M0 0 C0.99 0 1.98 0 3 0 C1.59679765 4.20960706 -1.45028136 5.47355955 -5.0625 7.6875 C-5.72572266 8.10322266 -6.38894531 8.51894531 -7.07226562 8.94726562 C-8.71013444 9.97240654 -10.35446977 10.98720268 -12 12 C-12.33 11.34 -12.66 10.68 -13 10 C-14.32 10.99 -15.64 11.98 -17 13 C-17.66 12.67 -18.32 12.34 -19 12 C-13.5236612 7.26192016 -9.14997442 3.489578 -2 2 C-1.34 1.34 -0.68 0.68 0 0 Z " fill="#8B8694" transform="translate(109,160)"/>
<path d="M0 0 C0.66 0.33 1.32 0.66 2 1 C1.8901717 4.43816147 1.75953137 7.87522348 1.625 11.3125 C1.5940625 12.28896484 1.563125 13.26542969 1.53125 14.27148438 C1.49257813 15.20927734 1.45390625 16.14707031 1.4140625 17.11328125 C1.3826416 17.97735596 1.3512207 18.84143066 1.31884766 19.73168945 C1 22 1 22 -1 25 C-1.84246352 19.85760267 -2.18267357 14.89522266 -2.1875 9.6875 C-2.19974609 8.97271484 -2.21199219 8.25792969 -2.22460938 7.52148438 C-2.2298177 5.67947476 -2.12280544 3.83791877 -2 2 C-1.34 1.34 -0.68 0.68 0 0 Z " fill="#5F4C84" transform="translate(357,133)"/>
<path d="M0 0 C-0.33 0.66 -0.66 1.32 -1 2 C-3.3045052 2.63817067 -5.61496323 3.02037323 -7.96875 3.4375 C-8.6390625 3.623125 -9.309375 3.80875 -10 4 C-10.33 4.66 -10.66 5.32 -11 6 C-12.8203125 6.34375 -12.8203125 6.34375 -15.125 6.5 C-19.3217887 6.86931741 -22.99218807 7.72091109 -27 9 C-27 8.34 -27 7.68 -27 7 C-24.48045712 6.0381577 -21.95946363 5.08045759 -19.4375 4.125 C-18.73302734 3.85558594 -18.02855469 3.58617187 -17.30273438 3.30859375 C-4.15201052 -1.66080421 -4.15201052 -1.66080421 0 0 Z " fill="#767577" transform="translate(146,147)"/>
<path d="M0 0 C1.82953688 3.65907376 0.93377182 7.99043307 0.75 12 C0.72292969 12.928125 0.69585937 13.85625 0.66796875 14.8125 C0.62800781 15.699375 0.58804687 16.58625 0.546875 17.5 C0.51432617 18.3146875 0.48177734 19.129375 0.44824219 19.96875 C0 22 0 22 -3 24 C-3.08681476 20.37515001 -3.14032721 16.75056557 -3.1875 13.125 C-3.21263672 12.09246094 -3.23777344 11.05992187 -3.26367188 9.99609375 C-3.27333984 9.00996094 -3.28300781 8.02382812 -3.29296875 7.0078125 C-3.31653442 5.64100342 -3.31653442 5.64100342 -3.34057617 4.24658203 C-3.22818604 3.50520996 -3.1157959 2.76383789 -3 2 C-2.01 1.34 -1.02 0.68 0 0 Z " fill="#7F60BD" transform="translate(365,130)"/>
<path d="M0 0 C0 0.99 0 1.98 0 3 C-2.23046875 5.05078125 -2.23046875 5.05078125 -5.1875 7.3125 C-9.91149012 11.02184343 -9.91149012 11.02184343 -13.9375 15.4375 C-15.94139332 17.92718564 -17.10320981 18.84128392 -20 20 C-20.99 20.66 -21.98 21.32 -23 22 C-18.60745138 12.40683958 -8.14574021 6.24770366 0 0 Z " fill="#151417" transform="translate(314,120)"/>
<path d="M0 0 C9.69458701 2.67084167 18.99185517 5.42783146 28 10 C24.7080608 11.09731307 24.18839866 10.96632159 21.0859375 9.85546875 C20.32410156 9.59056641 19.56226563 9.32566406 18.77734375 9.05273438 C17.98457031 8.76720703 17.19179687 8.48167969 16.375 8.1875 C10.29038934 6.02170475 4.33318266 4.29571102 -2 3 C-1.34 2.67 -0.68 2.34 0 2 C0 1.34 0 0.68 0 0 Z " fill="#49366F" transform="translate(222,133)"/>
<path d="M0 0 C0.66 0.33 1.32 0.66 2 1 C1 4 1 4 -1.80859375 5.5703125 C-8.85348894 8.58846996 -15.22297447 10.96416117 -23 11 C-19.94274864 8.96183242 -17.19295065 7.88207733 -13.75 6.625 C-9.91341138 5.18788319 -6.31383955 3.75689385 -2.8125 1.625 C-1.884375 1.08875 -0.95625 0.5525 0 0 Z " fill="#747474" transform="translate(227,322)"/>
<path d="M0 0 C1.82761145 5.23198572 -0.71475874 9.25424823 -3 14 C-4.89894312 17.40054048 -6.90463375 20.71725955 -9 24 C-9.66 23.34 -10.32 22.68 -11 22 C-9.37318965 17.75221742 -7.53300868 14.18163232 -4.9375 10.4375 C-2.60643077 7.05947412 -1.03009841 4.0173838 0 0 Z " fill="#744BC6" transform="translate(458,223)"/>
<path d="M0 0 C0.66 0.33 1.32 0.66 2 1 C-2.96281323 6.55362433 -8.20061301 11.09536997 -14.4375 15.125 C-15.36006592 15.7281604 -15.36006592 15.7281604 -16.30126953 16.34350586 C-17.8256549 17.29926457 -19.40929816 18.15923064 -21 19 C-21.66 18.67 -22.32 18.34 -23 18 C-21.60699235 16.89227061 -20.21045065 15.78898477 -18.8125 14.6875 C-17.64654297 13.76517578 -17.64654297 13.76517578 -16.45703125 12.82421875 C-14 11 -14 11 -11.5 9.53125 C-8.77294492 7.86092876 -6.55021585 5.96362935 -4.1875 3.8125 C-3.39730469 3.09707031 -2.60710937 2.38164062 -1.79296875 1.64453125 C-1.20128906 1.10183594 -0.60960937 0.55914062 0 0 Z " fill="#6E48B8" transform="translate(231,295)"/>
<path d="M0 0 C0 0.99 0 1.98 0 3 C-1.62249941 3.83819158 -3.24808497 4.6704116 -4.875 5.5 C-5.77992188 5.9640625 -6.68484375 6.428125 -7.6171875 6.90625 C-10 8 -10 8 -12 8 C-12 7.01 -12 6.02 -12 5 C-12.99 4.67 -13.98 4.34 -15 4 C-13.25307205 3.32532438 -11.50231475 2.66055844 -9.75 2 C-8.77546875 1.62875 -7.8009375 1.2575 -6.796875 0.875 C-4 0 -4 0 0 0 Z " fill="#211638" transform="translate(430,257)"/>
<path d="M0 0 C0.33 0.99 0.66 1.98 1 3 C-0.17360325 5.19309698 -1.37399543 7.19070549 -2.75 9.25 C-5.68926095 13.75404736 -7.99767717 18.00686586 -10 23 C-11.42582033 18.72253902 -9.57171917 15.96915568 -7.8125 12.0625 C-7.50763672 11.34642578 -7.20277344 10.63035156 -6.88867188 9.89257812 C-5.11061788 5.87052307 -3.41913429 2.90361071 0 0 Z " fill="#0E0E0E" transform="translate(60,196)"/>
<path d="M0 0 C0.33 0 0.66 0 1 0 C0.44854729 5.23880078 -0.42922093 9.97350697 -2 15 C-2.66 14.34 -3.32 13.68 -4 13 C-4.66 14.32 -5.32 15.64 -6 17 C-7.32830615 13.01508155 -6.23204404 11.59951452 -4.5625 7.8125 C-4.08941406 6.72582031 -3.61632812 5.63914063 -3.12890625 4.51953125 C-2.75636719 3.68808594 -2.38382813 2.85664063 -2 2 C-1.34 2 -0.68 2 0 2 C0 1.34 0 0.68 0 0 Z " fill="#483176" transform="translate(253,243)"/>
<path d="M0 0 C4.86896303 0.59619955 9.32790951 1.56976822 14 3 C14 3.66 14 4.32 14 5 C7.50321562 5.29530838 1.3778552 4.17293889 -5 3 C-5 2.67 -5 2.34 -5 2 C-3.35 2 -1.7 2 0 2 C0 1.34 0 0.68 0 0 Z " fill="#281F3A" transform="translate(208,130)"/>
<path d="M0 0 C0.66 0.33 1.32 0.66 2 1 C-3.28 6.28 -8.56 11.56 -14 17 C-14.66 16.67 -15.32 16.34 -16 16 C-10.96679794 10.22494276 -5.96260189 4.82082706 0 0 Z " fill="#453662" transform="translate(344,141)"/>
<path d="M0 0 C0.66 0.33 1.32 0.66 2 1 C-0.97 3.97 -3.94 6.94 -7 10 C-7 7 -7 7 -5.46875 5.17578125 C-4.8190625 4.56089844 -4.169375 3.94601563 -3.5 3.3125 C-2.8503125 2.68988281 -2.200625 2.06726563 -1.53125 1.42578125 C-0.77328125 0.72001953 -0.77328125 0.72001953 0 0 Z M-9 10 C-8.1875 11.625 -8.1875 11.625 -8 14 C-9.46818136 16.24609835 -11.15852858 18.02378677 -13 20 C-13.33 19.01 -13.66 18.02 -14 17 C-11 12 -11 12 -9 10 Z " fill="#18171B" transform="translate(131,207)"/>
<path d="M0 0 C0.33 0 0.66 0 1 0 C1.08114106 1.77007714 1.13925505 3.54122098 1.1875 5.3125 C1.22230469 6.29863281 1.25710938 7.28476563 1.29296875 8.30078125 C1 11 1 11 -0.51171875 12.85546875 C-1.00285156 13.23316406 -1.49398437 13.61085937 -2 14 C-2.33 13.34 -2.66 12.68 -3 12 C-3.66 12 -4.32 12 -5 12 C-4.34 9.69 -3.68 7.38 -3 5 C-2.34 5 -1.68 5 -1 5 C-0.67 3.35 -0.34 1.7 0 0 Z " fill="#5C39A3" transform="translate(256,233)"/>
<path d="M0 0 C0.52207031 0.18175781 1.04414063 0.36351562 1.58203125 0.55078125 C7.65749813 2.62559043 13.79305783 4.36415169 20 6 C18 8 18 8 15.9375 8.375 C10.20882103 7.64367928 5.11089679 4.5728324 0 2 C0 1.34 0 0.68 0 0 Z " fill="#B48EFF" transform="translate(343,202)"/>
<path d="M0 0 C0.95272312 2.56007809 1.11623296 3.68898395 0.14453125 6.2890625 C-0.51482422 7.44535156 -0.51482422 7.44535156 -1.1875 8.625 C-1.61417969 9.40101563 -2.04085937 10.17703125 -2.48046875 10.9765625 C-4.14183581 13.18887134 -5.45726609 13.9872623 -8 15 C-6.73147656 11.72298112 -5.38102094 8.48097064 -4 5.25 C-3.67 4.47140625 -3.34 3.6928125 -3 2.890625 C-2 1 -2 1 0 0 Z " fill="#543495" transform="translate(247,267)"/>
<path d="M0 0 C-0.3878678 2.48660455 -0.70962479 3.72345219 -2.55859375 5.484375 C-3.17863281 5.90203125 -3.79867188 6.3196875 -4.4375 6.75 C-5.05496094 7.17796875 -5.67242187 7.6059375 -6.30859375 8.046875 C-8 9 -8 9 -10 9 C-10 8.34 -10 7.68 -10 7 C-10.66 6.67 -11.32 6.34 -12 6 C-10.37829621 4.99466333 -8.75252763 3.99588093 -7.125 3 C-5.76761719 2.1646875 -5.76761719 2.1646875 -4.3828125 1.3125 C-2 0 -2 0 0 0 Z " fill="#483078" transform="translate(440,250)"/>
<path d="M0 0 C0 3 0 3 -1.57421875 4.68359375 C-2.27160156 5.26238281 -2.96898438 5.84117187 -3.6875 6.4375 C-4.41324219 7.0459375 -5.13898438 7.654375 -5.88671875 8.28125 C-10.92432432 12.37837838 -10.92432432 12.37837838 -13 14 C-12.51061681 9.72538761 -10.04257174 7.67448934 -7.0625 4.75 C-6.16660156 3.85796875 -5.27070312 2.9659375 -4.34765625 2.046875 C-2 0 -2 0 0 0 Z " fill="#90899F" transform="translate(96,170)"/>
<path d="M0 0 C0 0.33 0 0.66 0 1 C-2.91440599 1.6986179 -5.83086087 2.3842031 -8.75 3.0625 C-9.575 3.26166016 -10.4 3.46082031 -11.25 3.66601562 C-12.04921875 3.84970703 -12.8484375 4.03339844 -13.671875 4.22265625 C-14.77160645 4.48187866 -14.77160645 4.48187866 -15.89355469 4.74633789 C-18.20132783 5.02424428 -19.79916037 4.69809241 -22 4 C-18.17679443 2.57741188 -15.08718695 1.75957724 -11 2 C-10.67 1.01 -10.34 0.02 -10 -1 C-6.06329512 -2.31223496 -3.87511856 -1.24296256 0 0 Z " fill="#86828F" transform="translate(156,147)"/>
<path d="M0 0 C2.2962941 3.44444116 2.40265495 5.29377752 2.6875 9.375 C2.77386719 10.49648437 2.86023438 11.61796875 2.94921875 12.7734375 C2.99554818 15.71713814 2.70849575 18.15536291 2 21 C1.67 21 1.34 21 1 21 C-0.32719886 14.03220597 -0.08825381 7.07011089 0 0 Z " fill="#7459AA" transform="translate(360,133)"/>
<path d="M0 0 C0.74609375 1.640625 0.74609375 1.640625 1 4 C-0.65234375 6.796875 -0.65234375 6.796875 -2.9375 9.75 C-4.06478516 11.22726563 -4.06478516 11.22726563 -5.21484375 12.734375 C-5.80394531 13.48203125 -6.39304687 14.2296875 -7 15 C-7.33 14.34 -7.66 13.68 -8 13 C-6.85546875 10.21484375 -6.85546875 10.21484375 -5.1875 6.9375 C-4.64480469 5.85339844 -4.10210937 4.76929688 -3.54296875 3.65234375 C-2 1 -2 1 0 0 Z " fill="#7C7191" transform="translate(318,143)"/>
<path d="M0 0 C0.66 0.66 1.32 1.32 2 2 C1.591688 5.31663959 0.06324346 8.10999877 -1.4375 11.0625 C-1.86933594 11.91972656 -2.30117187 12.77695313 -2.74609375 13.66015625 C-4 16 -4 16 -6 19 C-5.52877252 12.0886636 -2.79363994 6.27795839 0 0 Z " fill="#3E3947" transform="translate(116,225)"/>
<path d="M0 0 C1.32 0.66 2.64 1.32 4 2 C3.01 5.63 2.02 9.26 1 13 C0.01 12.01 -0.98 11.02 -2 10 C-1.85546875 7.51953125 -1.85546875 7.51953125 -1.1875 4.8125 C-0.97480469 3.91144531 -0.76210938 3.01039063 -0.54296875 2.08203125 C-0.36378906 1.39496094 -0.18460937 0.70789063 0 0 Z " fill="#8553E8" transform="translate(262,218)"/>
<path d="M0 0 C1.28773727 3.86321182 0.47579022 5.69207343 -0.6875 9.5625 C-1.02136719 10.71878906 -1.35523438 11.87507813 -1.69921875 13.06640625 C-3 16 -3 16 -5.14453125 17.40234375 C-6.06298828 17.69818359 -6.06298828 17.69818359 -7 18 C-5.64474464 13.78224268 -4.09799886 9.70578678 -2.375 5.625 C-1.92898438 4.56539062 -1.48296875 3.50578125 -1.0234375 2.4140625 C-0.68570312 1.61742187 -0.34796875 0.82078125 0 0 Z " fill="#696277" transform="translate(281,248)"/>
<path d="M0 0 C0.33 0.66 0.66 1.32 1 2 C-1.31537955 5.72114571 -3.28579473 8.61229661 -7 11 C-7 10.34 -7 9.68 -7 9 C-7.66 8.67 -8.32 8.34 -9 8 C-6.03 5.36 -3.06 2.72 0 0 Z " fill="#5C3AA0" transform="translate(448,241)"/>
<path d="M0 0 C0.33 0 0.66 0 1 0 C0.58846263 4.97093824 0.20399168 9.44508386 -2 14 C-2.33 13.01 -2.66 12.02 -3 11 C-3.66 10.67 -4.32 10.34 -5 10 C-4.67 9.01 -4.34 8.02 -4 7 C-3.34 6.67 -2.68 6.34 -2 6 C-1.27306096 4.02111039 -0.60183749 2.02045442 0 0 Z " fill="#37235E" transform="translate(249,253)"/>
<path d="M0 0 C0.75 1.625 0.75 1.625 1 4 C-0.9375 7.25 -0.9375 7.25 -3 10 C-3.66 9.01 -4.32 8.02 -5 7 C-3.98819642 3.22873209 -3.32378142 2.21585428 0 0 Z " fill="#7E7A86" transform="translate(267,281)"/>
<path d="M0 0 C1.43931117 0.45261358 2.87638999 0.91232979 4.3125 1.375 C5.11300781 1.63023437 5.91351563 1.88546875 6.73828125 2.1484375 C9 3 9 3 12 5 C8.7 5 5.4 5 2 5 C1.34 3.35 0.68 1.7 0 0 Z " fill="#8E65E1" transform="translate(197,196)"/>
<path d="M0 0 C0 0.66 0 1.32 0 2 C-1.04800781 2.50660156 -1.04800781 2.50660156 -2.1171875 3.0234375 C-3.02726562 3.46945313 -3.93734375 3.91546875 -4.875 4.375 C-5.77992187 4.81585938 -6.68484375 5.25671875 -7.6171875 5.7109375 C-10.09534472 6.90502699 -10.09534472 6.90502699 -12 9 C-14.125 8.625 -14.125 8.625 -16 8 C-13.71125827 6.66141476 -11.41930344 5.32898986 -9.125 4 C-8.47402344 3.6184375 -7.82304688 3.236875 -7.15234375 2.84375 C-2.2265625 0 -2.2265625 0 0 0 Z " fill="#737374" transform="translate(118,155)"/>
<path d="M0 0 C0.66 0 1.32 0 2 0 C1.32902328 4.19360449 -0.8558394 7.40334352 -3 11 C-3.66 10.34 -4.32 9.68 -5 9 C-3.35 6.03 -1.7 3.06 0 0 Z " fill="#110E17" transform="translate(239,276)"/>
<path d="M0 0 C-4.65285818 3.10190545 -9.41532676 4.33846504 -15 4 C-12.39457984 2.26305323 -10.41657225 1.30899552 -7.5 0.3125 C-6.33984375 -0.09548828 -6.33984375 -0.09548828 -5.15625 -0.51171875 C-3 -1 -3 -1 0 0 Z " fill="#666666" transform="translate(219,329)"/>
<path d="M0 0 C1.6396875 0.0928125 1.6396875 0.0928125 3.3125 0.1875 C2.9825 1.5075 2.6525 2.8275 2.3125 4.1875 C-0.6575 3.8575 -3.6275 3.5275 -6.6875 3.1875 C-3.6875 0.1875 -3.6875 0.1875 0 0 Z " fill="#737276" transform="translate(156.6875,143.8125)"/>
<path d="M0 0 C1.37095624 3.69037278 0.60010967 5.70883835 -0.9375 9.25 C-1.31777344 10.14203125 -1.69804687 11.0340625 -2.08984375 11.953125 C-2.39019531 12.62859375 -2.69054687 13.3040625 -3 14 C-3.99 13.34 -4.98 12.68 -6 12 C-5.38125 11.13375 -4.7625 10.2675 -4.125 9.375 C-2.15345216 6.24371814 -1.01033009 3.53615531 0 0 Z " fill="#9D77E8" transform="translate(458,223)"/>
<path d="M0 0 C0.33 0 0.66 0 1 0 C0.67 2.64 0.34 5.28 0 8 C-1.32 8 -2.64 8 -4 8 C-3.34 6.02 -2.68 4.04 -2 2 C-1.34 2 -0.68 2 0 2 C0 1.34 0 0.68 0 0 Z " fill="#503488" transform="translate(253,243)"/>
<path d="M0 0 C0.33 0.99 0.66 1.98 1 3 C-3.455 5.97 -3.455 5.97 -8 9 C-8.66 8.67 -9.32 8.34 -10 8 C-9.36191406 7.50628906 -8.72382813 7.01257813 -8.06640625 6.50390625 C-7.24011719 5.86324219 -6.41382813 5.22257812 -5.5625 4.5625 C-4.73878906 3.92441406 -3.91507813 3.28632813 -3.06640625 2.62890625 C-1.12498733 1.16417803 -1.12498733 1.16417803 0 0 Z " fill="#5F4D83" transform="translate(218,305)"/>
<path d="M0 0 C4.10958767 1.45044271 7.43258745 3.51110752 11 6 C10.01 6.495 10.01 6.495 9 7 C6.8359375 6.00390625 6.8359375 6.00390625 4.375 4.5625 C3.55773437 4.08941406 2.74046875 3.61632812 1.8984375 3.12890625 C1.27195313 2.75636719 0.64546875 2.38382813 0 2 C0 1.34 0 0.68 0 0 Z " fill="#543395" transform="translate(252,163)"/>
<path d="M0 0 C0.99 0 1.98 0 3 0 C2.43454163 3.95820859 1.19097652 6.6659053 -1 10 C-2 8 -2 8 -1.0625 5 C-0.711875 4.01 -0.36125 3.02 0 2 C0 1.34 0 0.68 0 0 Z " fill="#79708A" transform="translate(271,271)"/>
<path d="M0 0 C2.64 0 5.28 0 8 0 C8 1.32 8 2.64 8 4 C6.68 4 5.36 4 4 4 C4 3.01 4 2.02 4 1 C2.68 0.67 1.36 0.34 0 0 Z " fill="#1E172B" transform="translate(156,194)"/>
<path d="M0 0 C0.33 0.66 0.66 1.32 1 2 C0.00390625 4.1640625 0.00390625 4.1640625 -1.4375 6.625 C-1.91058594 7.44226563 -2.38367188 8.25953125 -2.87109375 9.1015625 C-3.24363281 9.72804688 -3.61617188 10.35453125 -4 11 C-4.66 10.34 -5.32 9.68 -6 9 C-4.02 6.03 -2.04 3.06 0 0 Z " fill="#2E1D4E" transform="translate(272,313)"/>
<path d="M0 0 C0.66 0.66 1.32 1.32 2 2 C-1.75 5 -1.75 5 -4 5 C-4 4.34 -4 3.68 -4 3 C-4.66 2.67 -5.32 2.34 -6 2 C-4.02 1.34 -2.04 0.68 0 0 Z " fill="#34205A" transform="translate(434,254)"/>
<path d="M0 0 C3.3 0.33 6.6 0.66 10 1 C10 1.66 10 2.32 10 3 C5.06071112 3.3367697 4.21507278 3.16130459 0 0 Z " fill="#37245C" transform="translate(346,251)"/>
<path d="M0 0 C0.66 0.99 1.32 1.98 2 3 C0.35 6.3 -1.3 9.6 -3 13 C-4.23593891 9.29218328 -3.5678132 8.32489747 -2.0625 4.8125 C-1.68222656 3.91144531 -1.30195312 3.01039063 -0.91015625 2.08203125 C-0.60980469 1.39496094 -0.30945312 0.70789063 0 0 Z " fill="#232323" transform="translate(53,206)"/>
<path d="M0 0 C1.65 0 3.3 0 5 0 C5 0.99 5 1.98 5 3 C2.69 3.33 0.38 3.66 -2 4 C-1.34 3.67 -0.68 3.34 0 3 C0 2.01 0 1.02 0 0 Z " fill="#311D5A" transform="translate(172,193)"/>
<path d="M0 0 C0.66 0.33 1.32 0.66 2 1 C-2.455 3.97 -2.455 3.97 -7 7 C-7.66 6.34 -8.32 5.68 -9 5 C-7.54735962 4.1361871 -6.0876837 3.28419546 -4.625 2.4375 C-3.40683594 1.72400391 -3.40683594 1.72400391 -2.1640625 0.99609375 C-1.44992187 0.66738281 -0.73578125 0.33867188 0 0 Z " fill="#795AB7" transform="translate(333,108)"/>
<path d="M0 0 C0.66 0 1.32 0 2 0 C1.5206753 4.31392226 0.2542015 6.16569547 -3 9 C-2.01 6.03 -1.02 3.06 0 0 Z " fill="#75698F" transform="translate(313,149)"/>
<path d="M0 0 C0 0.99 0 1.98 0 3 C-1.53125 4.38671875 -1.53125 4.38671875 -3.5 5.6875 C-4.47453125 6.34298828 -4.47453125 6.34298828 -5.46875 7.01171875 C-5.9740625 7.33785156 -6.479375 7.66398437 -7 8 C-7 7.01 -7 6.02 -7 5 C-5.46875 3.61328125 -5.46875 3.61328125 -3.5 2.3125 C-2.8503125 1.87550781 -2.200625 1.43851562 -1.53125 0.98828125 C-1.0259375 0.66214844 -0.520625 0.33601563 0 0 Z " fill="#1F192C" transform="translate(314,120)"/>
<path d="M0 0 C-0.33 1.65 -0.66 3.3 -1 5 C-1.66 5 -2.32 5 -3 5 C-3 4.01 -3 3.02 -3 2 C-3.99 1.67 -4.98 1.34 -6 1 C-3 0 -3 0 0 0 Z " fill="#1A1623" transform="translate(421,260)"/>
</svg>
