<?xml version="1.0" encoding="UTF-8"?>
<svg version="1.1" xmlns="http://www.w3.org/2000/svg" width="500" height="500">
<path d="M0 0 C165 0 330 0 500 0 C500 165 500 330 500 500 C335 500 170 500 0 500 C0 335 0 170 0 0 Z " fill="#100D28" transform="translate(0,0)"/>
<path d="M0 0 C8.80782616 5.85341906 16.30311028 13.4536068 19.359375 23.72265625 C21.20038458 32.91343277 20.50916651 42.76508179 15.234375 50.68359375 C9.91729173 57.19299266 3.75221716 60.60863595 -4.13671875 63.23828125 C-15.54173753 64.209805 -26.62357672 64.11394132 -37.13671875 59.23828125 C-37.15089844 60.00527344 -37.16507812 60.77226562 -37.1796875 61.5625 C-37.9528394 79.55395362 -41.92016724 103.07179244 -55.13671875 116.23828125 C-69.05158422 128.32459068 -84.7812017 133.59982746 -102.99414062 132.4765625 C-113.01978057 131.36158705 -121.40058641 126.39267649 -129.13671875 120.23828125 C-130.16796875 119.49578125 -131.19921875 118.75328125 -132.26171875 117.98828125 C-142.88679242 107.8251673 -149.90034547 94.33990274 -150.5703125 79.5546875 C-150.5937867 77.63686196 -150.5947125 75.71864095 -150.57421875 73.80078125 C-150.56592041 72.79233154 -150.55762207 71.78388184 -150.54907227 70.74487305 C-150.38004125 63.29848525 -149.51435824 56.96349223 -146.13671875 50.23828125 C-145.65074219 49.23925781 -145.16476563 48.24023438 -144.6640625 47.2109375 C-137.06805616 32.97067029 -125.78292459 24.32383631 -110.77734375 19 C-91.39371005 13.4085672 -69.46573994 18.87124277 -52.13671875 28.23828125 C-51.81960938 27.57183594 -51.5025 26.90539062 -51.17578125 26.21875 C-41.99516515 8.08576515 -21.68645284 -10.14599013 0 0 Z " fill="#5109AE" transform="translate(324.13671875,176.76171875)"/>
<path d="M0 0 C0 2.64 0 5.28 0 8 C0.92619141 8.02126953 0.92619141 8.02126953 1.87109375 8.04296875 C10.00850627 8.50124008 16.21851351 11.05059197 22.0625 16.8125 C22.701875 17.534375 23.34125 18.25625 24 19 C23.67 19.66 23.34 20.32 23 21 C22.45730469 20.72285156 21.91460937 20.44570312 21.35546875 20.16015625 C20.64003906 19.79792969 19.92460937 19.43570313 19.1875 19.0625 C18.12595703 18.52302734 18.12595703 18.52302734 17.04296875 17.97265625 C10.08180804 14.65845163 2.47749068 15.23392212 -4.75 17.5 C-12.20208343 20.52973435 -16.11892486 25.71932236 -19.4375 32.875 C-20.68250961 35.84580322 -20.68250961 35.84580322 -21 39 C-14.187275 42.71603182 -7.08815313 43.17788742 0.48046875 41.42578125 C4.16576695 40.15707203 5.80468286 39.29297571 8 36 C8.31769549 33.42679652 8.31769549 33.42679652 8.25 30.625 C8.25515625 29.68914062 8.2603125 28.75328125 8.265625 27.7890625 C7.98635261 24.85670238 7.22149016 22.66595075 6 20 C7.98 20 9.96 20 12 20 C16.54926078 25.82874038 16.47190098 31.13090685 16.53125 38.37890625 C15.82568735 43.18814579 13.99049941 46.3080755 10.28125 49.4609375 C3.28026505 53.0535482 -3.60730383 53.0738901 -11.1796875 51.22265625 C-20.31152362 48.20377866 -28.74524712 43.72321436 -37.29296875 39.3671875 C-56.51309309 29.61779374 -80.28514127 21.83430176 -101.8125 28.625 C-104.50043891 29.70222587 -104.50043891 29.70222587 -107 31 C-107.87527344 31.43570313 -108.75054687 31.87140625 -109.65234375 32.3203125 C-120.61130141 38.35185912 -127.24730321 46.46163506 -131.07421875 58.33203125 C-134.40816848 71.54122447 -133.31457682 81.69238552 -126.5390625 93.55859375 C-125.11635969 95.79050583 -123.60012661 97.89282028 -122 100 C-121.39478516 100.90298828 -121.39478516 100.90298828 -120.77734375 101.82421875 C-114.86636636 109.86820938 -103.52716317 115.43456093 -93.97265625 117.6015625 C-80.71037798 119.3791609 -67.05348063 118.71004776 -55.9140625 110.62890625 C-53.19900787 108.31833935 -51.1155916 105.8662854 -49 103 C-49.33 102.67 -49.66 102.34 -50 102 C-50.53367187 102.45890625 -51.06734375 102.9178125 -51.6171875 103.390625 C-56.92510486 107.76185106 -62.23803613 111.34002331 -69 113 C-70.485 112.505 -70.485 112.505 -72 112 C-71.29875 111.5153125 -70.5975 111.030625 -69.875 110.53125 C-59.7044556 103.34553928 -51.96670519 96.07569652 -46 85 C-46 84.34 -46 83.68 -46 83 C-46.4846875 83.65226562 -46.969375 84.30453125 -47.46875 84.9765625 C-52.57296017 91.6316673 -58.03084773 97.81233909 -66 101 C-67.485 100.505 -67.485 100.505 -69 100 C-68.443125 99.731875 -67.88625 99.46375 -67.3125 99.1875 C-52.72082848 91.69447949 -47.00506159 79.29689118 -41.7265625 64.40234375 C-40.98527272 61.95130496 -40.45784327 59.51813797 -40 57 C-34.52166696 58.56523801 -31.68693526 62.10555502 -28.87207031 66.93530273 C-26.13989716 73.40394449 -28.43157195 80.98962984 -30.25 87.4375 C-30.47961426 88.27007324 -30.70922852 89.10264648 -30.94580078 89.96044922 C-35.26437356 105.30503754 -41.0415056 115.45581851 -55 124 C-68.57149142 131.28659837 -82.59539749 134.58565887 -97.859375 131.125 C-105.4944201 128.59109857 -111.72814484 124.98950559 -118 120 C-119.03125 119.2575 -120.0625 118.515 -121.125 117.75 C-131.75007367 107.58688605 -138.76362672 94.10162149 -139.43359375 79.31640625 C-139.45706795 77.39858071 -139.45799375 75.4803597 -139.4375 73.5625 C-139.42920166 72.55405029 -139.42090332 71.54560059 -139.41235352 70.5065918 C-139.2433225 63.060204 -138.37763949 56.72521098 -135 50 C-134.51402344 49.00097656 -134.02804688 48.00195312 -133.52734375 46.97265625 C-125.93133741 32.73238904 -114.64620584 24.08555506 -99.640625 18.76171875 C-77.6834641 12.42792234 -55.73704989 20.68502868 -36 30 C-34.05948235 26.18587911 -32.190818 22.508848 -30.6875 18.5 C-26.80124473 10.43961869 -20.22560596 4.38560272 -12.125 0.6875 C-8.04226829 -0.21070098 -4.16140719 -0.16645629 0 0 Z " fill="#AE35E8" transform="translate(313,177)"/>
<path d="M0 0 C0 0.66 0 1.32 0 2 C-0.99 2 -1.98 2 -3 2 C-3.00257813 2.65742188 -3.00515625 3.31484375 -3.0078125 3.9921875 C-3.53494878 16.95974007 -7.65224184 30.87612308 -16 41 C-10.91825337 37.86127414 -8.92914097 33.53694309 -6.33203125 28.36328125 C-5 26 -5 26 -3 25 C-3.70723743 33.95834075 -8.45691548 41.29163952 -14.875 47.30859375 C-23.60286901 54.25559243 -33.25688096 54.82952168 -44 54 C-48.60841694 53.06000502 -52.09569952 51.60286698 -56 49 C-55.505 48.505 -55.505 48.505 -55 48 C-55.55429688 47.54109375 -56.10859375 47.0821875 -56.6796875 46.609375 C-57.40414062 45.99578125 -58.12859375 45.3821875 -58.875 44.75 C-59.59429687 44.14671875 -60.31359375 43.5434375 -61.0546875 42.921875 C-66.65005238 37.39392415 -67.04304152 28.44213285 -67.375 20.9375 C-67.15483905 12.7656437 -63.73907415 5.74861942 -58.19921875 -0.17578125 C-39.90128648 -15.35363981 -19.36613524 -8.48542505 0 0 Z " fill="#100C2A" transform="translate(264,226)"/>
<path d="M0 0 C0 2.64 0 5.28 0 8 C0.92619141 8.02126953 0.92619141 8.02126953 1.87109375 8.04296875 C10.00850627 8.50124008 16.21851351 11.05059197 22.0625 16.8125 C22.701875 17.534375 23.34125 18.25625 24 19 C23.67 19.66 23.34 20.32 23 21 C22.45730469 20.72285156 21.91460937 20.44570312 21.35546875 20.16015625 C20.64003906 19.79792969 19.92460937 19.43570313 19.1875 19.0625 C18.47980469 18.70285156 17.77210938 18.34320313 17.04296875 17.97265625 C10.08180804 14.65845163 2.47749068 15.23392212 -4.75 17.5 C-12.20208343 20.52973435 -16.11892486 25.71932236 -19.4375 32.875 C-20.68250961 35.84580322 -20.68250961 35.84580322 -21 39 C-14.187275 42.71603182 -7.08815313 43.17788742 0.48046875 41.42578125 C4.16576695 40.15707203 5.80468286 39.29297571 8 36 C8.31769549 33.42679652 8.31769549 33.42679652 8.25 30.625 C8.25515625 29.68914062 8.2603125 28.75328125 8.265625 27.7890625 C7.98635261 24.85670238 7.22149016 22.66595075 6 20 C7.98 20 9.96 20 12 20 C16.54926078 25.82874038 16.47190098 31.13090685 16.53125 38.37890625 C15.82568735 43.18814579 13.99049941 46.3080755 10.28125 49.4609375 C3.28026505 53.0535482 -3.60730383 53.0738901 -11.1796875 51.22265625 C-19.40298781 48.50412991 -27.02774293 44.6136458 -34.71850586 40.67016602 C-40.31638623 37.80195981 -45.89662865 35.25708273 -51.78515625 33.03515625 C-54 32 -54 32 -55.3203125 30.53515625 C-58.00755975 28.07913725 -61.38887509 27.38067042 -64.8125 26.375 C-65.51181641 26.1584375 -66.21113281 25.941875 -66.93164062 25.71875 C-73.71819622 23.66183324 -80.31706913 22.82677105 -87.375 22.4375 C-88.47908203 22.37272461 -88.47908203 22.37272461 -89.60546875 22.30664062 C-91.40348068 22.20156201 -93.20171958 22.10037907 -95 22 C-94.67 21.34 -94.34 20.68 -94 20 C-79.69972888 16.08964693 -62.31010993 17.94710629 -49 24 C-47.73580196 24.55627346 -46.47147639 25.11225719 -45.20703125 25.66796875 C-42.11190443 27.06459082 -39.04812518 28.50420839 -36 30 C-34.05948235 26.18587911 -32.190818 22.508848 -30.6875 18.5 C-26.80124473 10.43961869 -20.22560596 4.38560272 -12.125 0.6875 C-8.04226829 -0.21070098 -4.16140719 -0.16645629 0 0 Z " fill="#DF30E6" transform="translate(313,177)"/>
<path d="M0 0 C0.495 0.99 0.495 0.99 1 2 C-4.1929266 13.7405297 -14.73052884 24.85301573 -26 31 C-18.0460578 29.22305546 -12.44077869 25.90444616 -6 21 C-5.01 20.34 -4.02 19.68 -3 19 C-4.11276406 24.72635887 -7.7090717 28.26898877 -12.26953125 31.71484375 C-23.32608027 38.83630603 -36.7365057 39.72849559 -49.49609375 37.34765625 C-61.95751088 33.86204978 -72.39238355 27.60972518 -80 17 C-81.2421875 14.1953125 -81.2421875 14.1953125 -82 12 C-80.89326166 12.76713644 -79.78972306 13.53889003 -78.6875 14.3125 C-78.07261719 14.74175781 -77.45773438 15.17101562 -76.82421875 15.61328125 C-75 17 -75 17 -73.515625 18.56640625 C-71.7731679 20.21455511 -70.31715681 20.83738476 -68.0625 21.625 C-67.05896484 21.98464844 -67.05896484 21.98464844 -66.03515625 22.3515625 C-55.68226622 25.65018005 -42.01535713 25.94301567 -32.0625 21.5 C-31.20785156 21.0359375 -30.35320312 20.571875 -29.47265625 20.09375 C-27 19 -27 19 -23.99609375 19.00390625 C-18.23789358 18.99639882 -13.23721114 15.1692698 -9.19921875 11.25390625 C-7.728238 9.5472645 -6.35610998 7.79875716 -5 6 C-4.04695062 4.84976799 -3.0889233 3.70363482 -2.125 2.5625 C-1.073125 1.2940625 -1.073125 1.2940625 0 0 Z " fill="#5E09E7" transform="translate(268,258)"/>
<path d="M0 0 C0 2.64 0 5.28 0 8 C0.92619141 8.02126953 0.92619141 8.02126953 1.87109375 8.04296875 C10.00850627 8.50124008 16.21851351 11.05059197 22.0625 16.8125 C22.701875 17.534375 23.34125 18.25625 24 19 C23.67 19.66 23.34 20.32 23 21 C22.45730469 20.72285156 21.91460937 20.44570312 21.35546875 20.16015625 C20.64003906 19.79792969 19.92460937 19.43570313 19.1875 19.0625 C18.47980469 18.70285156 17.77210938 18.34320313 17.04296875 17.97265625 C10.08180804 14.65845163 2.47749068 15.23392212 -4.75 17.5 C-13.80099391 21.20033512 -17.48321608 28.1917911 -21.15234375 36.875 C-21.57193359 37.926875 -21.57193359 37.926875 -22 39 C-25.62276315 37.6744419 -28.63505348 36.05653045 -31.8125 33.875 C-32.60269531 33.33617187 -33.39289063 32.79734375 -34.20703125 32.2421875 C-34.79871094 31.83226562 -35.39039063 31.42234375 -36 31 C-31.91137328 18.97462729 -26.75028667 8.26681956 -15 2 C-9.9679198 -0.23648009 -5.39939904 -0.21597596 0 0 Z " fill="#BB11E5" transform="translate(313,177)"/>
<path d="M0 0 C3.66195958 2.07280731 5.66024277 3.49036416 8 7 C8.77667219 12.28137088 8.96663016 16.60691536 5.875 21.0625 C-0.64368206 25.45552487 -7.29703957 25.86482323 -15 25 C-17.99458228 23.94685944 -20.27633044 22.67610434 -23 21 C-20.32721579 11.88823566 -16.63069086 5.77000516 -9 0 C-5.81011624 -1.59494188 -3.42171253 -0.74137105 0 0 Z " fill="#120D2A" transform="translate(314,195)"/>
<path d="M0 0 C0.77988281 0.32097656 1.55976563 0.64195312 2.36328125 0.97265625 C8.11221168 3.36221168 8.11221168 3.36221168 9.25 4.5 C9.15968426 6.85694954 9.00311872 9.21153582 8.8125 11.5625 C8.71066406 12.85285156 8.60882813 14.14320313 8.50390625 15.47265625 C8.42011719 16.47167969 8.33632813 17.47070312 8.25 18.5 C7.96640625 17.9225 7.6828125 17.345 7.390625 16.75 C4.2183195 10.49230148 1.47407501 5.97390233 -4.75 2.5 C-4.91435547 3.98886719 -4.91435547 3.98886719 -5.08203125 5.5078125 C-7.1517877 19.87690704 -14.76659 33.15753771 -25.75 42.5 C-29.125 44.5625 -29.125 44.5625 -31.75 45.5 C-32.41 45.17 -33.07 44.84 -33.75 44.5 C-33.09773437 43.98953125 -32.44546875 43.4790625 -31.7734375 42.953125 C-25.03638161 37.34884842 -20.80132218 31.76089662 -17.75 23.5 C-17.75 22.51 -17.75 21.52 -17.75 20.5 C-18.11351562 21.22445312 -18.47703125 21.94890625 -18.8515625 22.6953125 C-21.90487244 28.56706238 -24.77748337 33.11944964 -29.75 37.5 C-30.41 37.17 -31.07 36.84 -31.75 36.5 C-30.88375 35.51 -30.0175 34.52 -29.125 33.5 C-21.21981774 22.88500349 -18.69178656 9.30897802 -16.75 -3.5 C-10.83234779 -5.47255074 -5.47576568 -2.29926755 0 0 Z " fill="#1A0C33" transform="translate(277.75,231.5)"/>
<path d="M0 0 C2.31 0 4.62 0 7 0 C7.83764268 1.95649397 8.66999059 3.91525556 9.5 5.875 C9.9640625 6.96554687 10.428125 8.05609375 10.90625 9.1796875 C12 12 12 12 12 14 C12.66 14 13.32 14 14 14 C14.19335938 13.32453125 14.38671875 12.6490625 14.5859375 11.953125 C14.84632813 11.06109375 15.10671875 10.1690625 15.375 9.25 C15.63023437 8.36828125 15.88546875 7.4865625 16.1484375 6.578125 C16.9209934 4.23919428 17.83625676 2.16557438 19 0 C21.31 0 23.62 0 26 0 C26 7.59 26 15.18 26 23 C24.02 23 22.04 23 20 23 C19.67 20.03 19.34 17.06 19 14 C17.02 18.455 17.02 18.455 15 23 C12.6875 23 12.6875 23 10 22 C8.58711853 19.38948072 7.864695 16.86714656 7 14 C6.67 16.97 6.34 19.94 6 23 C4.02 23 2.04 23 0 23 C0 15.41 0 7.82 0 0 Z " fill="#EDECEE" transform="translate(332,320)"/>
<path d="M0 0 C8.33040932 5.53614205 16.56128086 13.19318862 18.86328125 23.23828125 C18.93851094 25.57040152 18.95654001 27.90681235 18.86328125 30.23828125 C16.74977497 27.4869713 14.84438765 24.66791946 12.98828125 21.73828125 C7.63725848 13.7639522 0.52767451 10.41022468 -8.76171875 8.48828125 C-9.54546875 8.40578125 -10.32921875 8.32328125 -11.13671875 8.23828125 C-11.13671875 5.59828125 -11.13671875 2.95828125 -11.13671875 0.23828125 C-22.77781118 1.71281962 -30.40531529 4.18385688 -38.13671875 13.23828125 C-40.9615451 17.10933958 -42.44245882 21.45985194 -44.07421875 25.93359375 C-45.14572252 28.25781149 -46.220751 29.57269565 -48.13671875 31.23828125 C-49.12671875 30.57828125 -50.11671875 29.91828125 -51.13671875 29.23828125 C-48.35109596 17.22528299 -39.76862086 8.66602391 -29.97265625 1.69921875 C-21.81379441 -3.18518349 -8.80693426 -4.12031736 0 0 Z " fill="#480BE5" transform="translate(324.13671875,176.76171875)"/>
<path d="M0 0 C5.56701031 2.88659794 5.56701031 2.88659794 6.875 6.25 C6.91625 6.8275 6.9575 7.405 7 8 C5.00045254 8.04254356 2.99958364 8.04080783 1 8 C0.67 7.67 0.34 7.34 0 7 C-3.5 6.83333333 -3.5 6.83333333 -7 7 C-8.39287806 8.17036305 -8.39287806 8.17036305 -8.1875 11.4375 C-8.39564928 15.05032721 -8.39564928 15.05032721 -6 17 C-3 17.41666667 -3 17.41666667 0 17 C0.66 16.01 1.32 15.02 2 14 C-0.31 14 -2.62 14 -5 14 C-5 12.68 -5 11.36 -5 10 C-0.71 10 3.58 10 8 10 C8 17.06735014 7.54147136 17.35039837 3 22 C-0.46250243 23.73125121 -4.21408229 23.47815224 -8 23 C-11.47060168 20.93240751 -13.77725393 18.89055567 -15 15 C-15.45295055 10.01754396 -15.1745053 6.94076519 -12 3 C-8.06805815 -0.1673976 -4.97806095 -0.61134082 0 0 Z " fill="#EBEBED" transform="translate(268,320)"/>
<path d="M0 0 C13.44869269 -0.37014751 13.44869269 -0.37014751 15.92578125 1.29296875 C17.74109309 4.17766429 17.35319931 6.70347311 17 10 C15.5 11.9375 15.5 11.9375 14 13 C14.309375 13.928125 14.61875 14.85625 14.9375 15.8125 C15.625 17.875 16.3125 19.9375 17 22 C15.02 22 13.04 22 11 22 C10.0234375 20.20963542 9.046875 18.41927083 8.0703125 16.62890625 C7.08589976 14.83381685 7.08589976 14.83381685 5 14 C5 16.64 5 19.28 5 22 C3.35 22 1.7 22 0 22 C0 14.74 0 7.48 0 0 Z " fill="#F8F8F9" transform="translate(282,321)"/>
<path d="M0 0 C2.31 0 4.62 0 7 0 C8.1773496 3.07935966 9.33997891 6.16407516 10.5 9.25 C10.83386719 10.12269531 11.16773438 10.99539063 11.51171875 11.89453125 C11.82753906 12.73886719 12.14335937 13.58320313 12.46875 14.453125 C12.90864258 15.61569824 12.90864258 15.61569824 13.35742188 16.80175781 C14 19 14 19 14 23 C12.35 23 10.7 23 9 23 C8.67 21.68 8.34 20.36 8 19 C5.03 19.33 2.06 19.66 -1 20 C-1.33 20.99 -1.66 21.98 -2 23 C-3.98 23 -5.96 23 -8 23 C-5.81659819 15.13620323 -3.00714974 7.58324716 0 0 Z " fill="#F1F1F3" transform="translate(312,320)"/>
<path d="M0 0 C2.31 0 4.62 0 7 0 C8.1773496 3.07935966 9.33997891 6.16407516 10.5 9.25 C10.83386719 10.12269531 11.16773438 10.99539063 11.51171875 11.89453125 C11.82753906 12.73886719 12.14335937 13.58320313 12.46875 14.453125 C12.90864258 15.61569824 12.90864258 15.61569824 13.35742188 16.80175781 C14 19 14 19 14 23 C12.35 23 10.7 23 9 23 C8.67 21.68 8.34 20.36 8 19 C5.03 19.33 2.06 19.66 -1 20 C-1.33 20.99 -1.66 21.98 -2 23 C-3.98 23 -5.96 23 -8 23 C-5.81659819 15.13620323 -3.00714974 7.58324716 0 0 Z " fill="#F1F1F3" transform="translate(234,320)"/>
<path d="M0 0 C0.74185547 -0.00386719 1.48371094 -0.00773438 2.24804688 -0.01171875 C6.10250306 -0.00485418 9.69181062 0.19043196 13.4375 1.125 C13.4375 1.455 13.4375 1.785 13.4375 2.125 C11.46330078 2.19847656 11.46330078 2.19847656 9.44921875 2.2734375 C-5.76974308 2.78642196 -5.76974308 2.78642196 -20.5625 6.125 C-19.2425 6.455 -17.9225 6.785 -16.5625 7.125 C-16.5625 7.785 -16.5625 8.445 -16.5625 9.125 C-17.63564453 9.49238281 -17.63564453 9.49238281 -18.73046875 9.8671875 C-31.86897442 14.79625172 -45.27654174 24.22654019 -51.5625 37.125 C-53.07662437 41.41174171 -54.36594646 45.73986525 -55.5625 50.125 C-55.8925 50.125 -56.2225 50.125 -56.5625 50.125 C-55.82747783 35.42455663 -48.21461217 22.94893777 -37.71875 12.9375 C-26.8277076 3.78271073 -14.02120144 -0.07347354 0 0 Z " fill="#2311E4" transform="translate(230.5625,193.875)"/>
<path d="M0 0 C2.8534407 2.1597355 5.4635929 4.47776277 8 7 C7.67 7.66 7.34 8.32 7 9 C6.45730469 8.72285156 5.91460937 8.44570312 5.35546875 8.16015625 C4.28232422 7.61681641 4.28232422 7.61681641 3.1875 7.0625 C2.12595703 6.52302734 2.12595703 6.52302734 1.04296875 5.97265625 C-6.06110752 2.59040961 -13.63741276 3.25131242 -20.9375 5.75 C-24.88789978 7.21612775 -27.08128445 8.99933348 -30 12 C-30.66 12 -31.32 12 -32 12 C-32.66 9.03 -33.32 6.06 -34 3 C-22.74863068 -4.50091288 -12.22519126 -6.78742619 0 0 Z " fill="#ED32E7" transform="translate(329,189)"/>
<path d="M0 0 C1.43799669 0.1554591 2.88055353 0.27087211 4.32421875 0.359375 C13.17574655 0.99109193 21.68789359 1.76792347 30.1875 4.4375 C30.85160889 4.6427832 31.51571777 4.84806641 32.19995117 5.05957031 C35.71957201 6.25127131 36.87218123 6.80827185 39 10 C38.03964844 9.71125 37.07929688 9.4225 36.08984375 9.125 C20.64216966 4.81277209 1.78775807 2.54826589 -13 10 C-13.87527344 10.43570313 -14.75054687 10.87140625 -15.65234375 11.3203125 C-26.83068858 17.47260454 -33.00485346 25.61358968 -37.25 37.5 C-38.20969735 41.97858764 -38.65116405 46.43759303 -39 51 C-39.33 51 -39.66 51 -40 51 C-40.33948559 41.24921944 -40.72199814 30.06672805 -33.69921875 22.53125 C-25.31513556 14.66889703 -16.65367816 6.97659559 -5 5 C-5 4.34 -5 3.68 -5 3 C-6.98 3 -8.96 3 -11 3 C-7.74003139 -0.25996861 -4.40088745 -1.46696248 0 0 Z " fill="#8D6FE9" transform="translate(219,198)"/>
<path d="M0 0 C2.75 -0.375 2.75 -0.375 6 0 C8.375 3 8.375 3 10 6 C10.53625 5.01 11.0725 4.02 11.625 3 C12.40875 2.01 13.1925 1.02 14 0 C17.25 -0.375 17.25 -0.375 20 0 C18.35573123 5.56521739 18.35573123 5.56521739 16.3125 8.0625 C14.78968195 9.92043523 14.78968195 9.92043523 15 12.25 C16.43466285 16.19532284 18.66548989 19.52838533 21 23 C17.6875 23.25 17.6875 23.25 14 23 C12.0625 21.125 12.0625 21.125 11 19 C11 18.34 11 17.68 11 17 C10.34 17 9.68 17 9 17 C8.690625 17.804375 8.38125 18.60875 8.0625 19.4375 C7 22 7 22 6 23 C4.00041636 23.04080783 1.99954746 23.04254356 0 23 C2 19 4 15 6 11 C5.566875 10.37351562 5.13375 9.74703125 4.6875 9.1015625 C4.130625 8.28429687 3.57375 7.46703125 3 6.625 C2.443125 5.81289063 1.88625 5.00078125 1.3125 4.1640625 C0 2 0 2 0 0 Z " fill="#EFEEF0" transform="translate(201,320)"/>
<path d="M0 0 C2.31 0 4.62 0 7 0 C7.56432047 5.93509461 5.57430544 10.49269979 3.375 15.875 C3.04371094 16.73480469 2.71242188 17.59460938 2.37109375 18.48046875 C-1.59153199 28.33469654 -8.10728223 37.44213267 -17.3125 43 C-18.6428125 43.495 -18.6428125 43.495 -20 44 C-20.66 43.67 -21.32 43.34 -22 43 C-21.34773437 42.48953125 -20.69546875 41.9790625 -20.0234375 41.453125 C-6.76637684 30.42512764 -4.00820129 16.09294964 0 0 Z " fill="#0C0EE5" transform="translate(266,233)"/>
<path d="M0 0 C4.62 0 9.24 0 14 0 C14 1.65 14 3.3 14 5 C11.36 5 8.72 5 6 5 C6 6.32 6 7.64 6 9 C8.31 9 10.62 9 13 9 C13 10.65 13 12.3 13 14 C10.69 14 8.38 14 6 14 C6 15.65 6 17.3 6 19 C8.64 19 11.28 19 14 19 C14 20.32 14 21.64 14 23 C9.38 23 4.76 23 0 23 C0 15.41 0 7.82 0 0 Z " fill="#ECECEE" transform="translate(181,320)"/>
<path d="M0 0 C4.95 0 9.9 0 15 0 C15 1.65 15 3.3 15 5 C12.03 5 9.06 5 6 5 C6 6.65 6 8.3 6 10 C8.31 10 10.62 10 13 10 C13 11.32 13 12.64 13 14 C10.69 14 8.38 14 6 14 C6 16.97 6 19.94 6 23 C4.02 23 2.04 23 0 23 C0 15.41 0 7.82 0 0 Z " fill="#E9E9EB" transform="translate(142,320)"/>
<path d="M0 0 C-3.12903741 1.04301247 -5.58842784 0.99500091 -8.85180664 0.88305664 C-20.03326523 0.53600031 -26.95708234 2.42230188 -35.28515625 10.22265625 C-39.71458796 14.8135251 -41.85647127 19.81786608 -43.97265625 25.73046875 C-45.0218438 28.04825569 -46.09552551 29.34370066 -48 31 C-48.99 30.34 -49.98 29.68 -51 29 C-48.21437721 16.98700174 -39.63190211 8.42774266 -29.8359375 1.4609375 C-20.99367167 -3.83259288 -9.46531395 -3.65972543 0 0 Z " fill="#1510E4" transform="translate(324,177)"/>
<path d="M0 0 C2.8334272 2.8334272 3.31947644 5.06497257 4 9 C3.00451047 11.7914458 2.07385479 13.92064747 0.625 16.4375 C0.28210938 17.07365234 -0.06078125 17.70980469 -0.4140625 18.36523438 C-1.25628851 19.92101297 -2.12548759 21.46213794 -3 23 C-5.9719385 21.87548273 -8.33440687 20.77706209 -11 19 C-10.41854143 15.08391156 -9.2458542 12.30903207 -7.1875 8.9375 C-6.68605469 8.10089844 -6.18460937 7.26429688 -5.66796875 6.40234375 C-3.98146821 3.97330901 -2.15142231 2.02075024 0 0 Z " fill="#7039EA" transform="translate(294,193)"/>
<path d="M0 0 C1.65 0 3.3 0 5 0 C5 5.94 5 11.88 5 18 C7.64 18 10.28 18 13 18 C13 19.32 13 20.64 13 22 C8.71 22 4.42 22 0 22 C0 14.74 0 7.48 0 0 Z " fill="#FCFCFD" transform="translate(163,321)"/>
<path d="M0 0 C1.43799669 0.1554591 2.88055353 0.27087211 4.32421875 0.359375 C13.17574655 0.99109193 21.68789359 1.76792347 30.1875 4.4375 C30.85160889 4.6427832 31.51571777 4.84806641 32.19995117 5.05957031 C35.71957201 6.25127131 36.87218123 6.80827185 39 10 C37.9584375 9.72285156 36.916875 9.44570312 35.84375 9.16015625 C26.89566397 6.86898358 18.43034455 5.49707958 9.1953125 5.17578125 C6 5 6 5 3 4 C0.93381251 4.09268505 0.93381251 4.09268505 -1.1875 4.4375 C-2.445625 4.623125 -3.70375 4.80875 -5 5 C-5 4.34 -5 3.68 -5 3 C-6.98 3 -8.96 3 -11 3 C-7.74003139 -0.25996861 -4.40088745 -1.46696248 0 0 Z " fill="#7B12E7" transform="translate(219,198)"/>
<path d="M0 0 C2.22095556 0.97097052 4.33177525 2.04350726 6.45703125 3.20703125 C7.38515625 3.61953125 8.31328125 4.03203125 9.26953125 4.45703125 C12.46440595 7.01293101 14.29835373 10.28708976 15.45703125 14.20703125 C15.05859375 16.4609375 15.05859375 16.4609375 14.45703125 18.20703125 C14.08578125 17.32015625 13.71453125 16.43328125 13.33203125 15.51953125 C10.53764102 10.58277517 7.36495018 7.94899972 2.08203125 5.89453125 C-1.24382487 5.26376543 -4.11399271 5.28389706 -7.4765625 5.40234375 C-11.24032377 5.04660072 -14.34142885 3.11433161 -17.54296875 1.20703125 C-12.17548199 -1.92087479 -5.85890223 -1.82696951 0 0 Z " fill="#8D0A8D" transform="translate(327.54296875,192.79296875)"/>
<path d="M0 0 C1 3 1 3 0.25 4.83203125 C-3.97692195 11.52906071 -8.91036754 16.98883447 -16.61328125 19.53125 C-21.65913805 20.52225297 -26.9095537 20.71029483 -32 20 C-33.88671875 18.4765625 -33.88671875 18.4765625 -35 17 C-33.94941406 16.90203125 -32.89882813 16.8040625 -31.81640625 16.703125 C-19.77524545 15.47059913 -10.5054609 13.30093566 -2 4 C-0.78989171 1.8845351 -0.78989171 1.8845351 0 0 Z " fill="#5C08B6" transform="translate(342,226)"/>
<path d="M0 0 C1.15725586 -0.01160156 1.15725586 -0.01160156 2.33789062 -0.0234375 C8.05904908 -0.00345092 8.05904908 -0.00345092 10.3125 2.25 C9.36890625 2.33636719 8.4253125 2.42273438 7.453125 2.51171875 C-4.7920592 3.85180417 -15.57578474 6.24080748 -23.6875 16.25 C-24.72457354 17.55470542 -25.75031663 18.87178916 -26.6875 20.25 C-25.81467512 12.83098853 -21.12575446 8.47979121 -15.78515625 3.765625 C-10.68325292 0.07933358 -6.08064887 -0.06188956 0 0 Z " fill="#8706C4" transform="translate(228.6875,221.75)"/>
<path d="M0 0 C17.61702128 5.61702128 17.61702128 5.61702128 20 8 C19.90968426 10.35694954 19.75311872 12.71153582 19.5625 15.0625 C19.46066406 16.35285156 19.35882813 17.64320313 19.25390625 18.97265625 C19.17011719 19.97167969 19.08632813 20.97070312 19 22 C18.71640625 21.4225 18.4328125 20.845 18.140625 20.25 C15.04706455 14.14763418 12.3446737 9.17233685 6 6 C2.26774656 5.20317197 2.26774656 5.20317197 -1 5 C-0.67 3.35 -0.34 1.7 0 0 Z " fill="#4F1C7A" transform="translate(267,228)"/>
<path d="M0 0 C6.52527584 4.79523152 10.43476864 10.30430593 13 18 C13.03954234 20.33299825 13.04401732 22.66708189 13 25 C10.88693047 22.24109616 8.94686006 19.41900868 7.0625 16.5 C5.35334572 13.87872847 4.00075582 12.00065637 1.625 9.9375 C-0.97862267 6.83318066 -0.26334842 3.95022636 0 0 Z " fill="#370AE4" transform="translate(330,182)"/>
<path d="M0 0 C2.57216446 0.3547813 3.79677287 0.8042998 5.6875 2.625 C8.19745975 7.16683193 8.36412705 10.73626494 6.9375 15.6875 C4.68201281 19.54365552 3.01675768 21.0688665 -1 23 C-4.875 23.25 -4.875 23.25 -8 23 C-7.443125 22.731875 -6.88625 22.46375 -6.3125 22.1875 C-1.37424914 19.93288201 -1.37424914 19.93288201 2 16 C2.12240135 14.23229673 2.17551153 12.45939538 2.1875 10.6875 C2.20876953 9.27017578 2.20876953 9.27017578 2.23046875 7.82421875 C1.98824335 4.85593118 1.24026607 2.69132835 0 0 Z " fill="#DC03D2" transform="translate(319,197)"/>
<path d="M0 0 C0.33 0 0.66 0 1 0 C1.31986304 3.99828799 1.22229924 6.52761413 -0.5 10.1875 C-4.41052824 14.58684427 -8.0348057 16.68497272 -13.94140625 17.3125 C-19.65512578 17.42691741 -24.62886173 16.95314119 -30 15 C-30 14.67 -30 14.34 -30 14 C-29.17757813 14.11859375 -28.35515625 14.2371875 -27.5078125 14.359375 C-19.8798359 15.24020371 -13.63066266 15.26256885 -7 11 C-5.98428074 9.67860219 -4.98129769 8.34715724 -4 7 C-3.34 7 -2.68 7 -2 7 C-1.855625 6.21625 -1.71125 5.4325 -1.5625 4.625 C-1 2 -1 2 0 0 Z " fill="#F505E0" transform="translate(328,212)"/>
<path d="M0 0 C0.33 1.32 0.66 2.64 1 4 C0.34 4 -0.32 4 -1 4 C-1.2475 4.73992187 -1.495 5.47984375 -1.75 6.2421875 C-4.257978 11.77541397 -9.26098996 15.85273088 -14.81640625 18.1796875 C-17.20190513 18.89228318 -19.55965796 19.51091266 -22 20 C-21.01261915 17.42959007 -20.4314937 16.23317255 -17.96875 14.90234375 C-17.1540625 14.58394531 -16.339375 14.26554688 -15.5 13.9375 C-8.76963894 10.83721706 -4.62138366 5.61448951 0 0 Z " fill="#1A0C32" transform="translate(343,222)"/>
<path d="M0 0 C1.79871968 4.16489259 0.03090074 7.71784951 -1.5 11.6875 C-1.91113037 12.75943604 -1.91113037 12.75943604 -2.33056641 13.85302734 C-6.40959446 23.9987747 -12.70881698 30.65306612 -22.05078125 36.22265625 C-24 37 -24 37 -27 36 C-26.443125 35.731875 -25.88625 35.46375 -25.3125 35.1875 C-11.97811817 28.34011474 -5.74227633 17.46751597 -1.0625 3.625 C-0.711875 2.42875 -0.36125 1.2325 0 0 Z " fill="#835DF0" transform="translate(271,241)"/>
<path d="M0 0 C0.99 0 1.98 0 3 0 C6.18753597 4.88091445 7.85757274 7.99699081 7 14 C5.1628872 18.7548802 2.70668011 21.88199395 -2 24 C-5.14355506 24.97396471 -7.96708879 25.1056962 -11.25 25.0625 C-12.14203125 25.05347656 -13.0340625 25.04445312 -13.953125 25.03515625 C-14.62859375 25.02355469 -15.3040625 25.01195312 -16 25 C-16 24.67 -16 24.34 -16 24 C-15.20335937 23.90203125 -14.40671875 23.8040625 -13.5859375 23.703125 C-5.00116794 22.65961942 -5.00116794 22.65961942 2 18 C3.63971709 14.33725533 4.47454539 10.87693328 3.4765625 6.9296875 C2.6236929 4.82158776 2.6236929 4.82158776 1 2 C0.67 1.34 0.34 0.68 0 0 Z " fill="#F857E9" transform="translate(322,197)"/>
<path d="M0 0 C2.82152585 2.82152585 3.34767233 5.08603398 4 9 C2.125 12.4375 2.125 12.4375 0 15 C-2.60314669 12.81671568 -3.89677366 11.28539046 -5.0625 8.0625 C-5 5 -5 5 -2.5625 2.125 C-1.716875 1.42375 -0.87125 0.7225 0 0 Z " fill="#9B38EA" transform="translate(294,193)"/>
<path d="M0 0 C0.66 0 1.32 0 2 0 C2.56206336 6.29510968 1.54490805 11.50763511 -0.25 17.5 C-0.45455811 18.21865234 -0.65911621 18.93730469 -0.86987305 19.67773438 C-1.515625 21.71875 -1.515625 21.71875 -3 25 C-5.171875 25.96875 -5.171875 25.96875 -7 26 C-6.566875 24.7625 -6.13375 23.525 -5.6875 22.25 C-3.25926717 14.97680972 -1.45564197 7.52539434 0 0 Z " fill="#C209E4" transform="translate(273,234)"/>
<path d="M0 0 C0.99 0.33 1.98 0.66 3 1 C2.44361103 10.01733849 1.54234031 19.23206175 -5 26 C-4.33539591 20.28440484 -3.06154902 14.77635169 -1.71875 9.18359375 C-1.03002981 6.1330125 -0.48310971 3.08911496 0 0 Z " fill="#AC04BF" transform="translate(261,228)"/>
<path d="M0 0 C2.31 0 4.62 0 7 0 C7.33 2.97 7.66 5.94 8 9 C5.36 8.67 2.72 8.34 0 8 C0 5.36 0 2.72 0 0 Z " fill="#6E07E7" transform="translate(313,177)"/>
<path d="M0 0 C0.66 0.33 1.32 0.66 2 1 C1.25556641 1.65742188 1.25556641 1.65742188 0.49609375 2.328125 C-5.41258926 7.84439073 -9.2109056 13.89544799 -13 21 C-13.99 20.67 -14.98 20.34 -16 20 C-14.60838098 15.83258477 -12.66792321 13.20583337 -9.6875 10 C-8.88828125 9.13632813 -8.0890625 8.27265625 -7.265625 7.3828125 C-4.88268752 4.87661963 -2.48496747 2.40480723 0 0 Z " fill="#3B0A9C" transform="translate(284,182)"/>
<path d="M0 0 C0.99 0.33 1.98 0.66 3 1 C2.45730469 1.71285156 1.91460937 2.42570313 1.35546875 3.16015625 C-2.46995469 8.28139881 -5.85271453 12.96075961 -8 19 C-8.99 18.67 -9.98 18.34 -11 18 C-9.650967 14.39827553 -8.04283018 11.1705113 -6.0625 7.875 C-5.55847656 7.02679688 -5.05445313 6.17859375 -4.53515625 5.3046875 C-3.16808288 3.25233816 -1.81325308 1.6562849 0 0 Z " fill="#170D32" transform="translate(281,187)"/>
<path d="M0 0 C0.66 0.33 1.32 0.66 2 1 C1.74605469 1.53367188 1.49210938 2.06734375 1.23046875 2.6171875 C-2.92271856 11.60798249 -5.38869425 20.0926309 -6 30 C-6.33 30 -6.66 30 -7 30 C-7.38179398 19.03402846 -6.97336042 8.87518598 0 0 Z " fill="#6F56E7" transform="translate(186,219)"/>
<path d="M0 0 C3.64555558 -0.11755481 7.29061474 -0.18769812 10.9375 -0.25 C12.46987305 -0.30027344 12.46987305 -0.30027344 14.03320312 -0.3515625 C20.74800033 -0.4373746 26.2606588 0.29037379 32 4 C32.495 4.99 32.495 4.99 33 6 C31.9584375 5.72285156 30.916875 5.44570312 29.84375 5.16015625 C19.84567114 2.59985883 10.31136703 1.27756035 0 1 C0 0.67 0 0.34 0 0 Z " fill="#9C2CDE" transform="translate(225,202)"/>
<path d="M0 0 C0.41713515 1.43146378 0.8080497 2.87058886 1.1875 4.3125 C1.40792969 5.11300781 1.62835938 5.91351563 1.85546875 6.73828125 C2 9 2 9 0.67578125 10.79296875 C-1 12 -1 12 -3 12 C-3.66 9.03 -4.32 6.06 -5 3 C-1.125 0 -1.125 0 0 0 Z " fill="#C533E5" transform="translate(300,189)"/>
<path d="M0 0 C-1.58376826 1.05584551 -3.17785442 2.10125188 -4.83203125 3.04296875 C-9.96676797 6.0103807 -13.34489901 9.37874174 -17 14 C-17.66 14.66 -18.32 15.32 -19 16 C-18.38105892 10.73900082 -16.31030713 6.88174269 -12.16796875 3.5078125 C-8.04522776 0.71727653 -5.11830803 -0.6397885 0 0 Z " fill="#300B9D" transform="translate(221,226)"/>
<path d="M0 0 C1.51320767 0.010619 3.02636995 0.03724142 4.5390625 0.078125 C5.29445312 0.08328125 6.04984375 0.0884375 6.828125 0.09375 C10.72422395 0.14824089 14.36117561 0.38876648 18.1640625 1.328125 C18.1640625 1.658125 18.1640625 1.988125 18.1640625 2.328125 C5.7890625 2.823125 5.7890625 2.823125 -6.8359375 3.328125 C-3.8359375 0.328125 -3.8359375 0.328125 0 0 Z " fill="#7B0FD5" transform="translate(225.8359375,193.671875)"/>
<path d="M0 0 C1 3 1 3 0.21484375 5.26953125 C-2.5769396 10.82748527 -5.33272133 14.87542815 -10 19 C-10.66 18.67 -11.32 18.34 -12 18 C-11.60167969 17.50371094 -11.20335937 17.00742187 -10.79296875 16.49609375 C-8.21200386 13.18668135 -5.87016528 10.10678684 -4.3125 6.1875 C-3.13880091 3.33708792 -2.34951696 1.90198992 0 0 Z " fill="#4B0988" transform="translate(258,250)"/>
<path d="M0 0 C1 3 1 3 0.07421875 4.97265625 C-0.61220703 6.00712891 -0.61220703 6.00712891 -1.3125 7.0625 C-1.98732422 8.10083984 -1.98732422 8.10083984 -2.67578125 9.16015625 C-5.07792018 12.49764132 -6.66664056 13.33332811 -10.625 14.125 C-11.44226563 14.29257813 -12.25953125 14.46015625 -13.1015625 14.6328125 C-14.04128906 14.81457031 -14.04128906 14.81457031 -15 15 C-14.34 14.484375 -13.68 13.96875 -13 13.4375 C-10.58656197 11.4765816 -8.18523204 9.50969107 -5.8125 7.5 C-4.80123047 6.64921875 -4.80123047 6.64921875 -3.76953125 5.78125 C-1.9578384 3.95755918 -1.0046751 2.34939408 0 0 Z " fill="#9C05C0" transform="translate(342,226)"/>
<path d="M0 0 C6.27 0.33 12.54 0.66 19 1 C15.44223788 3.37184142 13.71979393 3.29824394 9.5 3.3125 C7.78296875 3.33763672 7.78296875 3.33763672 6.03125 3.36328125 C3 3 3 3 0 0 Z " fill="#2F0B8D" transform="translate(307,243)"/>
<path d="M0 0 C1.65 0 3.3 0 5 0 C5.38218767 1.65614657 5.71395102 3.32457024 6 5 C5 6 5 6 2.4375 6.0625 C1.2309375 6.0315625 1.2309375 6.0315625 0 6 C0 4.02 0 2.04 0 0 Z " fill="#2F2C44" transform="translate(287,325)"/>
<path d="M0 0 C0.33 0 0.66 0 1 0 C1.33 2.31 1.66 4.62 2 7 C2.99 7.33 3.98 7.66 5 8 C4.34 9.32 3.68 10.64 3 12 C0.2678375 9.70850887 -0.90028101 8.35613925 -1.875 4.875 C-1.91625 3.92625 -1.9575 2.9775 -2 2 C-1.34 1.34 -0.68 0.68 0 0 Z " fill="#8237E8" transform="translate(291,196)"/>
<path d="M0 0 C1.32 0.33 2.64 0.66 4 1 C4 3.97 4 6.94 4 10 C2.68 9.34 1.36 8.68 0 8 C0 5.36 0 2.72 0 0 Z " fill="#5609E8" transform="translate(320,177)"/>
<path d="M0 0 C0.66 0.33 1.32 0.66 2 1 C2 1.66 2 2.32 2 3 C-1.30994713 4.65497356 -4.99123 4.10084335 -8.625 4.0625 C-9.42679687 4.05798828 -10.22859375 4.05347656 -11.0546875 4.04882812 C-13.03649006 4.03703168 -15.01825433 4.01909605 -17 4 C-17 3.67 -17 3.34 -17 3 C-15.53626953 2.80083984 -15.53626953 2.80083984 -14.04296875 2.59765625 C-12.13451172 2.33275391 -12.13451172 2.33275391 -10.1875 2.0625 C-8.29064453 1.80146484 -8.29064453 1.80146484 -6.35546875 1.53515625 C-3.01678297 1.09607545 -3.01678297 1.09607545 0 0 Z " fill="#A505C8" transform="translate(320,236)"/>
<path d="M0 0 C0.33 0 0.66 0 1 0 C1.33 3.3 1.66 6.6 2 10 C-0.475 9.01 -0.475 9.01 -3 8 C-2.45276317 4.62537285 -1.9451 2.91765 0 0 Z " fill="#4A3CEE" transform="translate(286,204)"/>
<path d="M0 0 C-1.26278132 3.78834395 -2.52112952 4.22011278 -6 6 C-9.13671009 6.99229258 -11.97006932 7.10565698 -15.25 7.0625 C-16.14203125 7.05347656 -17.0340625 7.04445312 -17.953125 7.03515625 C-18.62859375 7.02355469 -19.3040625 7.01195312 -20 7 C-20 6.67 -20 6.34 -20 6 C-18.80503906 5.85304687 -18.80503906 5.85304687 -17.5859375 5.703125 C-11.91633151 4.90303462 -4.76599023 0 0 0 Z " fill="#FB62EC" transform="translate(326,215)"/>
<path d="M0 0 C0.33 0 0.66 0 1 0 C0.25 7.75 0.25 7.75 -2 10 C-2.99 10.33 -3.98 10.66 -5 11 C-4.54917531 9.53932801 -4.08906463 8.08151968 -3.625 6.625 C-3.36976563 5.81289062 -3.11453125 5.00078125 -2.8515625 4.1640625 C-2 2 -2 2 0 0 Z " fill="#B50EE5" transform="translate(271,249)"/>
<path d="M0 0 C0.66 0 1.32 0 2 0 C2.33 4.29 2.66 8.58 3 13 C2.01 12.67 1.02 12.34 0 12 C-0.19401633 10.18818595 -0.38004375 8.37551468 -0.5625 6.5625 C-0.66691406 5.55316406 -0.77132813 4.54382813 -0.87890625 3.50390625 C-0.91886719 2.67761719 -0.95882813 1.85132813 -1 1 C-0.67 0.67 -0.34 0.34 0 0 Z " fill="#5F3BEC" transform="translate(287,202)"/>
<path d="M0 0 C1.98 0.66 3.96 1.32 6 2 C6 2.99 6 3.98 6 5 C3.69 5 1.38 5 -1 5 C-0.67 3.35 -0.34 1.7 0 0 Z " fill="#120C7D" transform="translate(267,228)"/>
<path d="M0 0 C2.98093122 2.5550839 4.52359755 5.38281401 6 9 C5.6875 11.375 5.6875 11.375 5 13 C4.38125 11.6696875 4.38125 11.6696875 3.75 10.3125 C2.09872712 7.18687634 0.28668741 4.68094386 -2 2 C-1.34 2 -0.68 2 0 2 C0 1.34 0 0.68 0 0 Z " fill="#B30ABE" transform="translate(337,198)"/>
<path d="M0 0 C1.9451 2.91765 2.45276317 4.62537285 3 8 C1.35 8 -0.3 8 -2 8 C-1.125 2.25 -1.125 2.25 0 0 Z " fill="#353249" transform="translate(315,327)"/>
<path d="M0 0 C1.9451 2.91765 2.45276317 4.62537285 3 8 C1.35 8 -0.3 8 -2 8 C-1.125 2.25 -1.125 2.25 0 0 Z " fill="#353249" transform="translate(237,327)"/>
<path d="M0 0 C3.93846154 4.30769231 3.93846154 4.30769231 4.25 7.8125 C4.1675 8.534375 4.085 9.25625 4 10 C1.4375 7.8125 1.4375 7.8125 -1 5 C-0.8125 2.1875 -0.8125 2.1875 0 0 Z " fill="#0A0D97" transform="translate(194,262)"/>
<path d="M0 0 C2.31 1.98 4.62 3.96 7 6 C6.67 6.66 6.34 7.32 6 8 C3.36 6.68 0.72 5.36 -2 4 C-1.34 3.67 -0.68 3.34 0 3 C0 2.01 0 1.02 0 0 Z " fill="#A231E2" transform="translate(330,190)"/>
<path d="M0 0 C0.66 0.33 1.32 0.66 2 1 C-0.97 4.96 -0.97 4.96 -4 9 C-4.99 8.67 -5.98 8.34 -7 8 C-4.69 5.36 -2.38 2.72 0 0 Z " fill="#9268F1" transform="translate(263,261)"/>
<path d="M0 0 C1 3 1 3 0.22265625 5.04296875 C-0.16019531 5.75066406 -0.54304688 6.45835937 -0.9375 7.1875 C-1.31777344 7.90292969 -1.69804687 8.61835938 -2.08984375 9.35546875 C-2.54037109 10.16951172 -2.54037109 10.16951172 -3 11 C-4.20681069 7.05432816 -3.61287128 4.81995829 -2 1 C-1.34 0.67 -0.68 0.34 0 0 Z " fill="#8406B6" transform="translate(260,243)"/>
<path d="M0 0 C-0.33 0.66 -0.66 1.32 -1 2 C-4.47325181 3.1577506 -7.36067448 3.06866652 -11 3 C-8.21756596 -1.17365106 -4.53441502 -0.22300402 0 0 Z " fill="#1D0BBC" transform="translate(233,280)"/>
<path d="M0 0 C0.66 0.33 1.32 0.66 2 1 C1 4 1 4 -1.375 5.25 C-4 6 -4 6 -7 5 C-4.69 3.35 -2.38 1.7 0 0 Z " fill="#E329E7" transform="translate(248,284)"/>
<path d="M0 0 C-2.39763185 2.39763185 -3.33273498 2.34280586 -6.625 2.625 C-7.44226563 2.69976562 -8.25953125 2.77453125 -9.1015625 2.8515625 C-9.72804687 2.90054688 -10.35453125 2.94953125 -11 3 C-7.74003139 -0.25996861 -4.40088745 -1.46696248 0 0 Z " fill="#6D34EC" transform="translate(219,198)"/>
<path d="M0 0 C0.66 0 1.32 0 2 0 C2.99 2.64 3.98 5.28 5 8 C4.01 8.33 3.02 8.66 2 9 C1.34 6.03 0.68 3.06 0 0 Z " fill="#AF34E3" transform="translate(295,192)"/>
<path d="M0 0 C0.99 0.33 1.98 0.66 3 1 C2.25 5.75 2.25 5.75 0 8 C0 5.36 0 2.72 0 0 Z " fill="#D502D1" transform="translate(261,228)"/>
<path d="M0 0 C0.99 0 1.98 0 3 0 C4.8125 2.25 4.8125 2.25 6 5 C5.1875 7.3125 5.1875 7.3125 4 9 C3.525625 7.88625 3.05125 6.7725 2.5625 5.625 C1.74693537 3.73289006 0.92143645 1.84287291 0 0 Z " fill="#F948E6" transform="translate(322,197)"/>
<path d="M0 0 C2.31 1.65 4.62 3.3 7 5 C6.01 6.485 6.01 6.485 5 8 C0 2.25 0 2.25 0 0 Z " fill="#2E15E1" transform="translate(186,270)"/>
<path d="M0 0 C0 3 0 3 -2.5 5.6875 C-3.325 6.450625 -4.15 7.21375 -5 8 C-5.66 7.67 -6.32 7.34 -7 7 C-2.25 1.125 -2.25 1.125 0 0 Z " fill="#260B6F" transform="translate(253,261)"/>
<path d="M0 0 C1.65 0 3.3 0 5 0 C5 0.66 5 1.32 5 2 C6.98 2 8.96 2 11 2 C11 2.33 11 2.66 11 3 C3.49230769 3.36923077 3.49230769 3.36923077 1 1.5 C0.67 1.005 0.34 0.51 0 0 Z " fill="#1A0C79" transform="translate(307,243)"/>
<path d="M0 0 C0.99 0.33 1.98 0.66 3 1 C2.67 1.66 2.34 2.32 2 3 C-0.32156597 3.40729228 -2.6568787 3.74438677 -5 4 C-3.36587557 2.29159719 -2.13093906 1.06546953 0 0 Z " fill="#130ED6" transform="translate(299,176)"/>
</svg>
